<svg xmlns="http://www.w3.org/2000/svg" viewBox="0 0 1200 1200"><defs><style>.cls-1{fill:#d1e9f2;}.cls-2{opacity:0.5;}.cls-3{fill:#2d83a6;}</style></defs><title>Asset 1</title><g id="Layer_2" data-name="Layer 2"><g id="Layer_1-2" data-name="Layer 1"><rect class="cls-1" width="1200" height="1200"/><g class="cls-2"><path class="cls-3" d="M1131,651l-4.71.52-.07-2.31h4.6C1130.92,649.83,1131,650.45,1131,651Z"/><path class="cls-3" d="M294.67,1193.84l15.88-1.14c1.47-8.45,2.27-17.46,4.69-26,5.06-17.88,9.72-36,16.82-53.13,10.75-25.89,22.4-51.48,36.55-75.79,4-6.89,7.45-14.61,13.06-19.92s9-9.53,3.91-16.89l6.87-3.51c-1.15-1.45-1.67-2.76-2.57-3.1-2.34-.9-5.86-2.65-7-1.71-1.91,1.51-3,4.88-3.15,7.53-.14,2.39,1.45,4.89,2.11,6.84-21.67,25.42-34.86,55.18-48.48,84.68-13.83,29.94-24.24,60.94-28.45,93.52-10,3-13.32,4.71-14.34,8.71Q292.6,1193.85,294.67,1193.84Z"/><path class="cls-3" d="M210.16,1196.87c5-6.38,6.87-14.1,9.23-21.52,4.73-14.87,10.21-29.52,12.43-45.17,2.31-16.33,6.77-32.43,8.11-48.8,1.45-17.8.43-35.81.33-53.73,0-1.76-1.11-3.52-1.71-5.28l-1.28.14a21.58,21.58,0,0,0-1,3.9c-1,15.63-1.72,31.28-3,46.88A410.23,410.23,0,0,1,214.71,1168a187.62,187.62,0,0,1-11.58,26.8l-.27.54C205.28,1195.86,207.71,1196.38,210.16,1196.87Z"/><path class="cls-3" d="M193.53,1193.57c5.14-19.4,10.31-38.15,15-57,3.76-15.17,7.21-30.44,10.1-45.8,1.46-7.74,2.73-15.74.78-23.85a37.46,37.46,0,0,0-3.79,10.63c-3.5,16.79-6.5,33.7-10.44,50.38-4.56,19.3-9.83,38.43-15,57.58-.52,1.91-2.39,3.71-4.06,5a12.37,12.37,0,0,0-2.08,2A88.79,88.79,0,0,1,193.53,1193.57Z"/><path class="cls-3" d="M375.11,744a58,58,0,0,1,3.57,6.54A155.45,155.45,0,0,1,389,797c1.34,18.85,3.53,37.64,5.3,56.46.57,6,1.78,12.22-4.2,18.78-.76-3.78-1.44-6.14-1.69-8.54-1.55-15-3.11-30-4.44-45q-1.09-12.37-1.44-24.8a141.26,141.26,0,0,0-7-39.19c-1-3.26-1.51-6.69-2.24-10Z"/><path class="cls-3" d="M422.13,885.21c1.5,6.22,3.5,12.38,4.41,18.69a1069.77,1069.77,0,0,1,11.12,130.76c0,.57-1,1.17-2.85,3.13-.89-5.74-1.89-10.17-2.21-14.65-2-28.07-3.49-56.17-5.77-84.22-1.29-15.91-3.75-31.72-5.67-47.58-.23-1.94-.37-3.89-.55-5.83Z"/><path class="cls-3" d="M293,744.08c6.4,8.63,5.65,18.44,6.89,27.63.36,2.67-2.68,3.44-6,2.32l-1.19-25c-7.42,3.79-10,9.53-12.53,14.94C274,777,268.23,790.32,262.37,803.55c-3.7,8.36-7.25,16.79-11,25.13-1,2.24-2.46,4.27-4.7,8.09C251.83,809.81,280.54,752.63,293,744.08Z"/><path class="cls-3" d="M222.12,1020.53l-6.93,7.52,13.5,12.32-9.7,12.31c-5.37-3.55-5.37-3.55,1-13.32-2.57-2.29-5.46-4.37-7.69-7-2.56-3-2.56-6.46,0-9.74C214.66,1019.76,216.83,1016.9,222.12,1020.53Z"/><path class="cls-3" d="M333.43,736.45c11.68,5.77,18.11,21.18,16.24,38C343.06,761.41,340.86,748.74,333.43,736.45Z"/><path class="cls-3" d="M423.61,1107.34c17.88-9.09,56.17-8.87,75.13.06-1.81,4.22-5.44,4.48-8.75,3.3-16.56-5.93-33.25-3.23-50-1.47C434.85,1109.78,429.47,1110.65,423.61,1107.34Z"/><path class="cls-3" d="M1197.86,996.5c5.67-39.09-1.58-79.8-2.87-119.11-1.23-37.5-2.2-75-2.45-112.53-19.36,1.48-38.71,3-58.08,4.22-15.62,1-31.31.82-46.91,2-17.39,1.34-34.68,3.85-52,5.48-17.68,1.65-35.41,2.85-53.12,4.23-26.57,2.06-53.15,4-79.72,6.18-12.06,1-24.1,2.21-36.66,3.38-1,4.81-2.12,8.23-2.24,11.69-.68,18.94-1.33,37.89-1.58,56.84-.73,56.93-1.26,113.86-1.89,170.79-.23,20.46-.53,40.93-.73,61.39-.07,7,1.74,9.08,8.44,10a100.39,100.39,0,0,0,10.61,1c26.05.7,52.11,1.39,78.16,1.91,23.34.46,46.69.51,70,1.09,24.8.61,49.58,1.79,74.38,2.42,29.45.75,58.9,1.23,88.35,1.87C1186.79,1071.59,1192.45,1033.81,1197.86,996.5ZM1053.93,806.87l10,4.05-.85,1.86-9.91-3.84Zm-4.5-2.82c-5.28,2.93-7.66,1.21-9.4-2.86Zm-11.2,9.19c-3.71,4.3-6,.91-9.12-.19C1032.76,808.13,1035.06,811.73,1038.23,813.23Zm-6.86,6.15c-4.44,3.19-4.44,3.19-10-2.62Zm4.1-20.28c-4.95,1.07-4.95,1.07-9.36-1.19C1029.23,795.09,1029.23,795.09,1035.46,799.1Zm-10.82,6.63q0,1.13,0,2.25c-3.39,1.86-6.28,1.56-9.75-3.55Zm-12.14-4.65c-6.6,2.36-11.49.85-21.56-5.86C999.61,793.17,1004.73,798.83,1012.5,801.07Zm-35.85-5.3,11.22,4.48c-5.32,3.1-8.3-.81-12.08-2.28Zm2.85,11c-5.44,4.26-7.75,3.73-13.14-3.7Zm-8,7.24c-5.9,4.16-8.43-.34-12.95-.48C963.63,808.53,966.48,812.76,971.49,814Zm-7.73-12.5c-2.38,3.52-4.6,2.16-7.54.53C959,798.68,961.23,799,963.76,801.53Zm-13.59,5,5.18.51,0,1.78-5.41.43Zm2.36,20.4c-3.61,4.86-3.61,4.86-11.71-.63C945.79,823,948.71,827,952.54,826.93Zm-6.3-22.88c-4.94,3.94-8.49-.35-14.2-1.7C940,800.17,940,800.17,946.24,804.05Zm-13.5,37.63-.43,1.23-5.8-2,.42-1.2ZM918.8,813.29l10.46,4.06c-6.13,2.32-8.17-1.29-11.28-1.85Zm-20-8.33,10,3.37L908,810.4l-9.93-3.51Zm1.88,13.14c-5.21,1.06-5.21,1.06-13.17-3.32C892.42,811.5,894.52,812,900.64,818.1ZM892,823.82c-1.82,3.8-4.26,4.95-7.68,2.7-2.26-1.49-7.09-1.67-3.64-7.12,2.23.71,3.9,1.13,5.5,1.77C888,821.91,889.84,822.83,892,823.82ZM877.28,851l15.18,6.17C886.17,859.93,881.38,858.11,877.28,851Zm9.08,29.43-.84,1.42-7.31-2.56c1.58-.69,2.25-1.27,2.68-1.13C882.74,878.81,884.54,879.66,886.36,880.44Zm-7.94-35.61c5.43-.92,5.43-.92,9.31,3.29Zm6.15-6c6.83-4.91,9.69.86,13.73,1.26C893.54,844.69,890.31,839.78,884.57,838.82Zm.15-31.1-8.47,5.44C876.3,805.43,879.61,806.91,884.72,807.72Zm-7.78,76.89,5.14,1.95-.65,1.72-5.11-2Zm1.57,20.28,5.4,4.49C879.48,910.29,877.72,909.54,878.5,904.89Zm-1.68-6.61c7.62-4.58,10.91.34,14.77,3.26C886.55,904.21,882.88,900.46,876.82,898.28Zm20.75-1.94-9.84-4.53,1.23-1.72,9.41,4.46Zm2.9-7.95-5.75-2.2,1.06-1.28,4.94,2.86Zm-3.66-24.88c4.93-3.88,7.71-.62,11.3,1.54C903.39,869.07,900.61,865.86,896.81,863.51Zm4.56-18.67,6.93-1.37C904.81,846.75,904.81,846.75,901.36,844.84Zm-6.73-13.69c5.63-6.53,10.06-1.71,15.12.29C903.61,836.7,903.61,836.7,894.64,831.15ZM908,820.78l10.64,2.82-.3,2.2C913.72,827.82,910.69,824.94,908,820.78Zm15.2,31.63c-4.05,3.07-7,0-10.38-1.3C917.71,848,917.71,848,923.22,852.4Zm-11.54,17.26c5.62-3.93,9.06.91,13.61,2.43C920.29,875.5,919.79,875.4,911.68,869.66Zm7.9-6.41c6.08-.16,6.08-.16,10.5,4.81Zm8.55-6.77c5.14-2.17,6.79-1.83,13.3,2.73C936.23,863.14,936.23,863.14,928.13,856.48Zm4.76-22.56c4.21-2.9,6.91-.11,10.32,2C938.43,840.7,936,835.29,932.89,833.92Zm16.69,36.2c2.07-5.06,3.75-6.95,7.88-3ZM947.09,841c4.94-4.17,8.07.85,11.9,2C953.62,847.8,950.91,842.35,947.09,841Zm8.07-6c5.25-5.59,6.59-5.39,14.27,1.36C963.9,841.83,960.3,835.35,955.16,835Zm12.09,15.23c3.18-1.69,3.18-1.69,8,.41C970.87,852.13,970.87,852.13,967.24,850.24Zm10.07-6c.31-1.72.32-3.17.62-3.23a53.3,53.3,0,0,1,5.77-.7l.17,3ZM972.81,818c6.78-1.47,9.55,1.82,14.48,5.22C980.74,824,977.29,822.22,972.81,818Zm8.83-5.14c3.52-4.12,3.52-4.12,14.2,1.11C990.25,818.57,990.25,818.57,981.64,812.85Zm16.18,17.4-5.1-2.1.48-1.49,5.41,1.66Zm-6.35-27.43,11.6,4.34C997.78,809.68,994.32,807.1,991.47,802.83Zm9.55,19.1-.12-2.75h8.82C1006.64,824.51,1003.85,823.37,1001,821.93Zm7.64,14.12.07-1.46a9.19,9.19,0,0,1,2.72-.2c.72.16,1.31.89,1.68,2.51Zm-.76-23.12c4.42-3.82,6.32-1.21,8.84.45C1013.56,817.71,1011.43,813.9,1007.9,812.93Zm7.35,14.37c2.71-4.36,5.42-2.67,8.85.1C1019.77,829.72,1019.77,829.72,1015.26,827.31Zm12.61,16.35-5.41-2,.48-1.58,5.53,1.63ZM1029,833c3.84-5.49,6.87-.73,10.46.41C1035,838.08,1035,838.08,1029,833Zm7.36-8.16c4.43-2.75,7.16.41,12.2,2.31C1042.48,829.82,1039.47,827,1036.36,824.87Zm6.1-6.41c4.9-3.5,8.59-.36,13.22,1.79C1050,825.56,1046.49,819.95,1042.46,818.45Zm18.5,8.93c1.13-3.86,2.79-4.91,6.16-1.41Zm13.71-25.27-7.12-2.93,1.21-1.57,6.44,3.32ZM1070,791.64c6.17-1.11,11.3,1.29,16.17,4.53C1079.57,799,1075.44,793.08,1070,791.64Zm16.52,4.67,8.21,2.48C1089.36,802.62,1088.11,802.14,1086.56,796.31Z"/><path class="cls-3" d="M701,656.57l5,7.5c-10.88-2.6-20.21-.86-28.93,2.08-8.46,2.85-16.19,7.83-26.31,12.91,2.31-3.2,3.24-5.18,4.76-6.47,10.91-9.27,23.38-14.78,37.88-15.15,2.64-.07,5.27-.37,7.89-.58Z"/><path class="cls-3" d="M696.6,634c-6.82,1.55-12.34-1.28-18.27-4.88C684.65,627,687.84,627.77,696.6,634Z"/><path class="cls-3" d="M345,680.29c1.27-32.21,3.62-64.42,3.52-96.62-.1-31.87-2.67-63.74-3.71-95.6,9.46,63.91,10.75,127.92,2.54,192Z"/><path class="cls-3" d="M311.53,615.17c-3,3.75-6,4.71-9.84,3.88-13.54-2.88-27.57-4.17-39.54-12.09a75.78,75.78,0,0,1-11.09-8.52c-5.45-5.29-10.51-11-15.56-16.67-.75-.85-.51-2.59-1-5.32,6.75,6,12.33,11.05,18.06,16,10.6,9.07,23,14.23,36.61,16.85,5.51,1.06,11,2.14,16.49,3.41C307.55,613.09,309.23,614.16,311.53,615.17Z"/><path class="cls-3" d="M370.05,697.54c5.71-17.16,13.47-33.43,22-49.88,4,3.23,2.33,6.66,1.21,9.28-5.46,12.73-11.25,25.32-17.06,37.9C375.33,696.79,374.48,699.63,370.05,697.54Z"/><path class="cls-3" d="M423.53,500.47c10.3,14.59,12.47,32.57,19,48.79-7.76-5.66-9.21-14.76-12.45-22.78-3.33-8.24-6-16.76-8.94-25.15Z"/><path class="cls-3" d="M300.19,660.65c5.33,12.59,8.69,24.61,11.94,37.19C304.75,694.12,297.19,671.16,300.19,660.65Z"/><path class="cls-3" d="M236.6,473.86c-4.42-.25-7.45-3.53-14-15.16C230.08,459.23,233.9,463.35,236.6,473.86Z"/><path class="cls-3" d="M723.31,821.81c11.23,3.61,21.86,7.32,32.66,10.41,10.5,3,21.12,5.7,31.81,7.94,10.85,2.27,21.86,3.8,32.8,5.66l.43,2.1c-1.79,1-3.48,2.59-5.4,3a23.53,23.53,0,0,1-8-.06c-12.82-2.05-25.62-4.25-38.41-6.47-14.09-2.45-27.39-7.38-40.28-13.4C725.61,829.37,721.72,827.64,723.31,821.81Z"/><path class="cls-3" d="M765.07,952.92,757,1115.65C751.78,1096,756,992,762.89,953Z"/><path class="cls-3" d="M734.42,861.24c14.43,4.35,28.06,9.1,42,12.49,13.63,3.32,27.59,5.26,42.29,8-4.15,4.5-8.22,3.32-11.85,2.93-21.84-2.33-43-7.74-63.57-15.24C738,867.47,738,867.51,734.42,861.24Z"/><path class="cls-3" d="M812.06,898.35c-.09,5.09-3.34,5.43-6,6.14-11.76,3.12-23.56,5.23-35.8,2.59-4-.86-8.26-.28-12.35-.78a27,27,0,0,1-10-3.24c10.49-3,21.21-1.56,31.75-2.36S800.7,899.17,812.06,898.35Z"/><path class="cls-3" d="M720.78,862.5c11,12.58,27.12,16.55,42.1,24.08-6.2,2.5-11.89,1.65-21.35-3.46C732.7,878.35,723.41,873.79,720.78,862.5Z"/><path class="cls-3" d="M871.1,409.88c-.52,6.22,2.64,9.24,8,9.92,6.43.81,12.94,1.7,19.37,1.48,3.2-.11,6.45-2.36,9.42-4.09,1.94-1.13,3.42-3,6.26-4-.37,1.43-.39,3.11-1.2,4.23a37.8,37.8,0,0,1-5.79,6.52c-1.71,1.49-3.94,3.28-6,3.33-7.37.18-14.88.4-22.1-.8-5.91-1-11.05-4.28-11.44-11.65-.21-4-1.67-7.39-5.69-9.25-.82-.38-1.13-1.86-2.27-3.9,17.74,2.39,34.42,6.92,51.83,1.54l1-5c3.34-.93,12,6.36,15.11,12.9-1.64,0-3,.11-4.26,0-4.31-.44-8.76-1.91-12.89-1.28a99,99,0,0,1-34.31-.29C874.59,409.2,872.79,409.74,871.1,409.88Z"/><path class="cls-3" d="M949,359.89l-6.29.72c-4.14-9.71-12.05-14.84-21.36-18.31-1.07-.4-2.6.09-3.45-.5-1.54-1.09-3.76-2.61-3.85-4.07-.2-3.14,2.71-3.23,5.13-3.31C932.54,334,945.38,344.58,949,359.89Z"/><path class="cls-3" d="M838.57,342.68c.27-3.16-.12-5.11.64-6.33,4.94-7.89,17.24-12.63,26.32-11,4.77.87,6.57,3.08,5.7,8.64C860.35,334.83,848.83,334,838.57,342.68Z"/><path class="cls-3" d="M930.43,357.73c-1.63,4.8-2.19,9.26-7.06,10.79-2.72.85-5.2-.06-6.32-3.29.88-3.35,8.53-2.16,5.23-8.56-1.3-.22-3-.57-4.68-.78s-3.36-.26-5.35-.4c3.32-4.62,9.8-6.1,16.51-4.16,6.13,1.78,9.54,8.29,9.46,18.29-3.81,0-3.27-3.3-4.31-5.36S931.6,359.9,930.43,357.73Z"/><path class="cls-3" d="M858.74,347.44l-10.69-1.08c5.91-5.66,11-5,16.5-3.26,7.44,2.36,8,8.37,7.53,15.3l-6.75-10c-5.67,10.58-7.79,11.63-13.78,6.87l7.78-6.14Z"/><path class="cls-3" d="M881.22,359.48c1.16,9.81-1.65,16.84-9.2,24.94,1.77,6,10.58,6.4,11.26,13.64-7.3-.33-15.79-7.68-15.89-13.83a7.85,7.85,0,0,1,2.34-5.34C875.62,373.65,879.87,367.59,881.22,359.48Z"/><path class="cls-3" d="M894.31,398.29c-2.53-6-2.53-6,4.24-8.47Z"/><path class="cls-3" d="M348.62,378.74c.61,2.86,1.27,5.72,1.8,8.59.81,4.42.07,8.62-4,10.94-7.33,4.17-15.3,6.93-23.66,3.92-3-1.09-5.73-4.11-7.74-6.87a42.12,42.12,0,0,1-5-10.22,6.63,6.63,0,0,1,.41-5,82.67,82.67,0,0,1,7.87-11.73c1.07-1.29,3.74-2,5.56-1.77,4.4.47,7.79-1,11.49-3.23,6-3.65,8.12-2.6,11.07,4.34,1.45,3.42,2.54,7,3.79,10.5Zm-6.31-2.35,0-3.21c-2.59-.5-5.39-1.9-7.73-1.34-12.5,2.95-12.46,3.11-15.92,9.37Zm2.63,13.44-24.1,4.54-.07,2.32c4.3,2.29,9.34,1.25,13.94,1C339,397.43,343.3,396,344.94,389.83Z"/><path class="cls-3" d="M314.89,319.47c-.65,2.56-.51,6.33-2.14,7.4-2.36,1.55-6.07,1.76-9.07,1.4A40.46,40.46,0,0,1,292.75,325c-5.76-2.47-10.24-.8-14.35,3.33-1.53,1.54-3.29,2.86-6.31,5.45C280.5,318,290,317,300.94,320.21c4.12,1.19,8.65,4.76,11.9-2.1Z"/><path class="cls-3" d="M300.46,338.79c-2.94,4.35,2.1,4,3,5.94-5.23,3.28-5.23,3.28-9.47-2.49-2.94,2.61-5.77,5.34-8.83,7.77-2.12,1.68-4.3,1-4.48-1.68-.14-2.1,1.06-4.29,1.71-6.59,3.36-.12,6.17,1.94,9.07-1.5,6.68-7.93,11.92-7.82,20.81-.7C308.05,343.53,304.7,337.91,300.46,338.79Z"/><path class="cls-3" d="M321.78,321.54c.25-1.34,0-3.2.84-3.93,3.4-3.11,7.23-5.74,10.67-8.8,5.38-4.78,11.56-5.73,18.24-4.07,1.08.27,1.76,2.1,2.43,4-11.47-3.35-18.38,2.45-24.6,10.23-1.45,1.81-3.84,2.88-5.79,4.28Z"/><path class="cls-3" d="M358.31,320.58c-1,11.25-9.21,4.11-15.23,5.71l2.72,6.35c-4.13,2.48-4.13,2.48-7.28-1.55l-4.75,3c3.25-7.33,6.93-13.74,16.66-11.88C352.65,322.67,355.21,321.29,358.31,320.58Z"/><path class="cls-3" d="M331.42,351.9c-2.26-4.7-7.39-8.57-5.47-15.63l9.84,15c-7.56,11.69-7.56,11.69-14.5,7.34C326.68,358.6,330.89,357.78,331.42,351.9Z"/><path class="cls-3" d="M328.88,332.49l-11.14,2.13c3.56-4.72,6.95-5.33,10.67-4.69Z"/><path class="cls-3" d="M1045.21,576.65c5-7.15,10.43-9.62,19-9.15C1060.54,573.08,1054.82,575.94,1045.21,576.65Z"/><path class="cls-3" d="M236.3,997.33a2.45,2.45,0,0,0-.91,0c-14.32,4.46-27.1-3.26-40.45-5.64-27.1-4.85-54.09-10.31-81.62-12.37-19.78-1.5-39.56-3.42-59.37-4.76-8.23-.57-16.54-.09-25.47-.09.32-2,.11-3.38.7-4.1C38,959.6,46.06,948.14,55.94,938.53c10.33-10,21.34-19.35,31.5-29.64,3.26-3.31,7.75-5.39,11.28-8.52,2-1.77,4.89-4.26.23-7-.61-.36.48-4.8,1.79-6.64.68-.93,4-1,5.39-.16,2.72,1.68,4.69,4.55,7.39,6.3,1.4.93,3.69.5,5.57.66,0-1.9.86-4.35,0-5.62-3.06-4.46-7.11-8-12.78-8.88-4-.63-7.77.34-10.17,3.92-1.63,2.42-3.74,5.08-4,7.79-.7,7-5.1,10.56-10.22,14.48a280.93,280.93,0,0,0-58,59.62c-2,2.86-3.47,6.14-5.3,9.45-4.55.33-9.11.7-13.68,1.05v8.19c11.19-.23,22.39-.44,33.58-.84,20.17-.7,40.06,1.84,60,3.69,15.59,1.43,31.29,1.79,46.77,4,20.21,2.83,40.24,7,60.34,10.6a24.5,24.5,0,0,1,6.78,1.93c6.07,3.1,11.92,4.06,18.67,1.56,5.55-2.06,7.11.07,5.73,6.37-.45,2.11-2.47,4.44,1.47,6.14,2.85-2.86,4.21-6.75,5.17-10.56C244.69,1001.55,241.4,997.81,236.3,997.33Z"/><path class="cls-3" d="M518.72,1092.16c-1.79-1-3.67-1.9-5.76-3,0-16.52-.18-33.08,0-49.65.93-76.2,2-152.43,2.9-228.63.2-17-.36-34.08-.48-51.1-.07-9.68,0-19.33.07-29,.14-12.64.48-25.29.57-37.91.09-14.52,0-29,0-43.57q.31-50.27.77-100.56c.52-48.65,1.18-97.3,1.72-146,.45-41.19.72-82.41,1.22-123.6q1-86.33,2.22-172.66c.45-32.85.91-65.69,1.55-98.54H505.32c-.48,57.42-1.67,114.67-2.1,171.93-.59,75.34-2.06,150.68-3.08,226q-1.5,112.57-2.92,225.14Q495.69,744.06,494,857c-1.09,75.18-2.31,150.36-3.49,226.63l-28.62-5.35c-.14-2.65-.41-5.23-.36-7.82.48-31.38,1.11-62.74,1.45-94.12.54-47.11.73-94.22,1.34-141.32.41-32,1.45-64,2-96.05.29-18.06,0-36.14.25-54.2.32-23.11,1-46.2,1.47-69.29q.58-27.56,1-55.08.71-45.34,1.31-90.68c.45-37.3.7-74.62,1.25-111.93.29-20.12,1.13-40.24,1.52-60.36.43-23.72.57-47.45,1-71.17q.82-50.23,1.79-100.51c.5-26.92,1.11-53.86,1.47-80.8.18-13.82.08-27.68.06-42-2.2,0-4.41.05-6.61.09-.34,13.21-.72,25.81-.9,38.39-.07,4.15-1.93,6.16-5.71,7.84-21.64,9.54-43.1,19.49-64.71,29.12q-31.61,14.11-63.35,27.83c-22.27,9.65-44.66,19.06-66.93,28.71a57,57,0,0,0-7.77,4.62c-5.19-2.06-9.49-4.33-14.07-5.53-11.42-3-23-5.48-34.69-9.06C254.93,102.4,298,81.73,341,61,380.74,41.81,420.56,22.65,460.8,3.27q-11.48.32-23,.81-7.17,3.56-14.34,7.11-49.83,24.54-99.7,49c-23.11,11.28-46.36,22.36-69.54,33.56q-26,12.54-52,25.13c-5.78,2.79-8.72,7.27-8.79,13.82-.59,43.91-1.16,87.83-1.95,131.74-.57,31.13-1.56,62.22-2.15,93.35-.16,7.57.59,15.18.75,22.77A9.55,9.55,0,0,1,189,384.7q-9,19.24-18,38.47l-2.2-.14c1.52-103.62,3-207.24,4.51-310,28.64-14.43,55.85-28.19,83.09-41.87,32.27-16.2,64.6-32.27,96.8-48.56q16-8.1,31.92-16.25-9.78.36-19.57.58l-11.65,5.95c-27.69,14-55.45,28-83.11,42-2.63,1.34-4.92,3.26-7.41,4.85-2.74,1.77-5.3,4.08-8.29,5.08C235.55,71.33,218.36,82.5,199.89,91c-6.16,2.88-12.37,5.73-18.29,9.09a75.29,75.29,0,0,0-12.78,9c-1.45,1.25-1.84,4.21-1.9,6.41q-.82,27.56-1.27,55.13-1.09,70.22-2,140.44c-.54,37.36-1.68,74.71-1.36,112,.09,11.35-2.86,19.78-9.77,28.57-15,19-28.48,39.18-43,58.53-13.16,17.49-26.94,34.51-41.1,52.59-.27-2.47-.63-4.26-.63-6,0-24.27-.16-48.56.16-72.85.45-34.35,1.36-68.7,1.95-103.05.61-34.6,1.07-69.22,1.61-103.82Q72.22,230,73,183c.52-27.55,1-55.13,1.7-82.68.45-17.79,1.4-35.55,1.88-53.34.16-6.3,2.92-10.29,8.29-13.5Q106.49,20.65,128,7.7q-8,.15-16,.24C103.16,13.29,94.31,18.62,85.51,24c-6.77,4.15-13.41,4.85-21.12,3.74-21.07-3-42.17-5.87-63.27-8.69.1,2.66.24,5.32.4,8L12,28.55C29.31,31,46.6,33.36,63.89,35.83a53.5,53.5,0,0,1,6.34,1.74C69.46,75.91,68.6,114,68,152.2c-.45,25.54-.52,51.05-.91,76.59-.5,32.9-1.43,65.82-1.63,98.72C65.3,347.79,64,368,64,388.28s-.23,40.36-.57,60.52c-.48,28.46-1.18,56.94-1.72,85.4-.27,15.09-.34,30.18-.63,45.27,0,2.95-.91,5.87-1,8.84-.16,6.73-.82,13.6.2,20.19.93,6,0,11.71-.14,17.56-.7,45.36-1.29,90.73-2.08,136.07-.25,15.11-1,30.23-1.4,45.34-.27,12.44-.18,24.9-.43,37.34-.09,4.71-.63,9.4-1,14.8-17.17.28-34.2.44-51.16.72V870c5.45-.19,10.9-.36,16.36-.36,13.23,0,26.49.88,39.74,1s26.47-.5,39.7-.66c25.7-.32,51.46-1.63,77.09-.54,23.29,1,46.72,2.27,69.63,7.7,8,1.9,16.29,2.83,24.43,4.31a26.87,26.87,0,0,1,4.64,1.86c-2.18,5.55-1,10.08,3.33,14.14,1.43,1.34,1.7,4.37,1.77,6.66.2,7,.07,14,.07,21.68-4.69-1.61-10-3.24-15.16-5.21-27.8-10.63-57-15.84-85.88-22.5-10.38-2.4-20.8-4.71-31.27-6.59-5.21-.93-10.63-.86-16-1-2.54-.09-4.78.68-4.33,5,7.55,1.16,15.45,1.79,23.07,3.65,20.08,4.94,39.95,10.76,60.07,15.59,42.08,10.13,82.18,26.33,123.24,39.59,19.06,6.16,37,15.43,54.61,25.06,4.6,2.52,9.77,4,14.66,6,2.7,1.06,5.39,2.11,9,3.53-1.79,6.64-3.42,12.71-5.35,19.8,2.15-.68,3.76-.7,4.49-1.52,5-5.71,8.61-12,7.68-20.08-.39-3.26-1.47-5.82-4.8-6.68-28.14-7.36-50.73-26.92-78.31-35.6-15-4.71-29.68-10.22-44.5-15.36L284,926.48c6.71-11.56,4.46-28.66-4.46-38l3.74-11.4c-4.55-1.5-8.57-3.42-12.78-4.12-25.67-4.4-51.39-8.45-77.49-9.18a10.63,10.63,0,0,1-2.15-.73c-1.9-4.94-1.13-10.31,0-15.39,4.89-21.55,11.26-42.64,20.91-62.65,7.23-14.91,14.32-29.86,24.29-43.23,4.24-5.69,8.63-11.26,12.85-17a7,7,0,0,0,1.2-4.78C220,745.75,206.89,782,190.69,816.51c0-14.16-.11-28.32,0-42.49.25-26.87.61-53.75,1-80.62.2-15.41.39-30.82.66-46.22.41-21.93,1.25-43.84,1.16-65.78,0-8,3.15-12.67,10.22-16.2,1.86,4.67,4.19,8.88,5.1,13.39.66,3.22,0,7-1.18,10.2-1.72,4.85-1.27,8.93.93,13.6,5.14,11,9.61,22.23,14.37,33.4,3.35,7.89,6.78,15.77,10,23.7q7.1,17.23,14,34.53c2.38,6,5,11.76,4.51,18.69-.39,5.94,4.83,9.13,9.86,9.81,21.1,2.81,42.24,6.53,63.51,1.84,2.79-.61,4.78-.82,7.41.66,7.45,4.12,15.2,4,23.2,1,5.85-2.15,9.81-5.19,9.36-12.08a40.89,40.89,0,0,1,.43-6.39l30.93-7.09c4.37,4.92.23,9.27.29,14.5-5,1.06-10,1.7-14.64,3.29-4.42,1.5-9.86-.39-15,3.94,12.51,4.1,22.59.75,33.4-4.31,16.27,27.62,32.74,54.63,48.17,82.23,6.12,10.94,10.42,22.64,9.63,36.21-1.27,21.87-.48,43.84-.82,65.78-.52,33.15-1.22,66.3-1.88,99.43-.45,22.11-1,44.21-1.52,66.3-.07,2.86-.29,5.71-.52,9.54-20.73-3.69-40.36-7.18-60.61-10.76,4.85-17.22,13.53-33,14.12-51.28a21.54,21.54,0,0,0-2.58,3.56c-9.06,20.28-18.19,40.51-27,60.88-5.53,12.78-10.54,25.79-15.79,38.68-10.78,26.46-24.2,51.53-38.56,76.28l8.36.5c8.42-15.65,17.1-30.53,24.45-46.06,8.86-18.69,16.45-38,24.63-57,3.15-7.27,6.39-14.5,9.81-22.21,7,1.72,13.5,3.42,20,4.89,9.18,2.08,18.35,4.21,27.62,5.94,13.64,2.54,27.39,4.51,41,7.16,10.15,2,20.23,4.31,30.2,7.07,11.37,3.15,15.63,11.28,14,23-.7,4.94.73,10.15,1.2,15.25.2,2.36.88,4.74.59,7-2.21,17.81-1.85,35.58-1,53.39l7.1,0c-.26-4.25-.49-8.49-.57-12.74-.2-11.83.52-23.66.79-35.48a48.15,48.15,0,0,0-.16-7.89c-1-7-2.56-13.55.63-20.85C534.4,1110.06,526.43,1096.6,518.72,1092.16ZM462.41,468.29c-6.64-1.29-12-3.83-14.52-10.9-2.27-6.39-7.73-9.68-13.78-11.58-11.22-3.53-22-8.59-34-9.4a10.73,10.73,0,0,1-4.8-1.9c-8.32-5.37-16.54-10.85-25.11-16.52,2.85-3.22,6.37-4.17,10.33-4,7.52.25,12.92-3.08,17.33-10.88l-13.35-6.46c6.28-7.14,14.93-12.17,14.12-23.72-4.28,1.31-8.27,2.56-14.14,4.37,9.77-11.56,10.69-23.43,7.61-36.75l7.43-.77c.57,1.27,1.29,2.08,1.2,2.83-.27,2.63-1.31,5.26-1.16,7.84s.7,5.71,2.38,7.09a212.56,212.56,0,0,0,21.23,15.84c6.32,4.06,11.42,2.24,13.87-4.74,1.65-4.69,4.71-5.57,8.81-5.64,4.4-.09,9,.61,10.54-5.6.25-1,4.55-1,6.87-1.45C465.93,364.7,465.09,456.74,462.41,468.29Zm-110.8-30.73c-3.29,5-6.55,9.92-9.92,15-10.72-5.87-20.69-11-30.27-16.72-4.53-2.7-8.47-6.46-12.33-10.11-1.31-1.22-1.63-3.58-2.31-5.44-1.11-2.95-2.13-5.89-4.28-8.5-.27,3.6-1,7.27-.66,10.81.18,2,1.77,4.24,3.31,5.8,9.77,10.08,21.59,17.33,33.67,24.22,1.29.73,2.47,1.63,4.55,3l-27,25.24c-7.79-5.78-25.56-28-32.24-40.08,1.36-4.26,7.73-7.43,3.15-13.26-.34-.41.27-1.7.63-2.52,2.95-6.55,6-13.1,9.24-20.32,4.42,3.1,9.65,6.37,14.41,10.22,9.4,7.57,20.78,9.86,32.08,11.83,4.06.7,8.63-1.43,12.92-2.42a51.49,51.49,0,0,0,5.78-2c2.7,3.63-2.22,8.68,2.85,11.49,4.19-4.83-.43-13.8,8.59-16.79,3.65,6.78,7.7,13.5,10.9,20.64,1.09,2.38.23,5.82-.25,8.7-1.13,6.66-2.56,13.28-4.1,21-7-5.57-13.05-10.15-18.69-15.18-1.11-1-1-3.85-.75-5.76C351.23,443.66,352.22,440.94,351.61,437.57ZM263,417.94c-1.54,5.87-7.75,6.91-12.92,10.58,7.93,6.25,14.77,0,23.75-1.13-9,5.28-15.66,10.36-23.2,13.28-5.82,2.24-12.69,2-19.12,2.4-15,1-14.66-2.65-21.59,15.27-2.7,6.91-7.64,10.7-14.16,15.91V447c10.63-2,16.5-9.27,19.62-19.15,4.6-.82,8.88-1.86,13.26-2.27,5.08-.5,8-2.92,9.52-7.79.7-2.36,2.29-4.46,2.95-5.73Zm-10.51-45c5-3.44,8.2-2.24,11.6,1.95,4.58,5.66,5.91,7.34,7.45,14.39C262.47,387.26,256.67,381.37,252.46,372.94Zm12.15-10.26c5.12-6.44,7.86-14.16,6.41-23.23-.79-4.94-1.16-10-1.56-15a21,21,0,0,0-5.32-12.82c-3.6-4-3.29-8.25-1.59-13.21,4.87-14.28,16.81-17.74,29-14.32,5.12,1.45,10.29,2.79,15.27,4.62,8.54,3.15,14.91-.32,20.66-6.14.82-.82,1.25-2.08,2.11-2.83,2.33-2,5.39-5.82,7.14-5.32,4.53,1.29,9.49,3.22,10.7,9.2a25.19,25.19,0,0,0,9,14.89,18.09,18.09,0,0,1,5,8.16c3.9,12.39,6.82,24.92,7.68,38.07.88,13.32-3.51,25.74-4.65,38.66-.25,3-1.27,5.87-1.38,8.9,0,0,0,0,0,0a40.84,40.84,0,0,1-1.77,6.37,35.6,35.6,0,0,1-7.25,8.93,57.85,57.85,0,0,1-14.34,7.18h0a7.62,7.62,0,0,0-2.63.43c-13,5-24.56.45-35.46-5.91-7.59-4.44-14.28-10.42-21.66-15.25-3-2-4.4-4.42-5.57-7.52C271.33,378.88,268.12,371.31,264.6,362.68Zm200.64-10.6c-6.28-3.33-11.6-6.16-16.9-9-.45.52-.88,1-1.31,1.56,1.22,1.77,2.42,3.53,3.65,5.28,2.65,3.76,2,5.53-2.54,6.75-8.72,2.36-12.49.36-15.29-8.32-2-6.16-3.78-12.42-5.76-18.63a4.44,4.44,0,0,0-2.27-2.4c.27,10.08,3.33,19.4,6.91,28.55-6.39,2.88-8.18,2.58-11.08-3-2.7-5.23-4.78-10.81-7.21-16.2-.66-1.47-1.61-2.86-2.88-5.05-.88,11.94,7.61,28.62,16.93,34.44-4.19,1.86-4.19,1.86-22.77-13.28-1.81-7,2.29-14.09,0-22-8,3.72-14.73,2.95-21.34,1.61-1.79-.36-3.1-3-5.19-5.21,2-1,2.88-1.65,3.9-1.88,16.93-4,33.92-7.7,50.73-12.1,4.76-1.25,8.59-1.2,12.53,1.52,6.57,4.55,13.16,9,19.87,13.6ZM261.5,211c-.09-11,.29-21.93.61-32.9.32-10.63.84-21.23,1.27-32.06,68.57-30.16,136.68-60.32,206.56-90.57-.41,89.16-2,176.44-3.87,265-6.44-3.76-11.76-6.71-16.9-9.95-6.44-4-12.71-4.8-20.21-2.27-10.6,3.56-21.66,5.71-31.95,8.34-2.92-5.12-5.48-9.58-8.84-15.48,2.88-12.08,14-25.11,5.21-41.6l-8,9.34c-2.33-7.68-1.84-15.18-7.41-21.21l-7.09,17c-1.31-3.81-2.2-5.51-2.49-7.32-2.58-15.68-13.46-25.31-29.66-26.35a12.88,12.88,0,0,1-5.53-2c-3.24-2-6.12-4.6-9.47-6.34-16.77-8.86-36.1-5.6-49.58,7.82-3.78,3.78-8.18,6.91-12.55,10.56C260.55,231.76,261.59,221.36,261.5,211Zm-1.13,45.27c.86-1.95,1.2-3.92,2.36-5,1.5-1.4,3.67-3,5.53-2.92,5.51.11,11,1,16.5,1.54,3.22.36,6.46,1.16,9.65,1.09,13.1-.25,17.11-3.85,19.21-17.15,7.39-1.11,14.14-.73,20.78,4.26,4.8,3.6,11.24,4.69,15.52,9.72,3.17,3.74,5.78,7.23,6.32,12.33.45,4.26,1.95,8.41,3.17,13.3-1.7-1.34-11.69-13.41-12.3-13.94-2.56-2.2-5-5.3-8-6.07-3.26-.86-5.66-1.61-8.07-4.31-5.23-5.89-9.88-6.12-16.2-1-7.55,6.12-14.93,12.51-19.24,21.91-8.2-3.26-13.39-11.47-23.86-12.3,1.88,3.24,3.1,5.37,4.51,7.82-.59.34-1.22,1-1.88,1-10.67.18-17.45,6.37-22.79,14.75-2.74,4.28-2.72,9-2,13.73,1.65,11.08-1.59,13.84-12.44,10.47a26.29,26.29,0,0,1-3.92-1.95c-1.34-4.53,1.2-7.45,3.58-10.49a72.91,72.91,0,0,0,6.28-8.52c2.92-5.26,2.45-6.53-2.52-10.24s-5.32-7-.68-11.22A26,26,0,0,1,260.37,256.32Zm-.86,82.55c-4.85,1.93-9.61,4.24-14.64,5.66-2.65.75-6.37,1-8.54-.34-6.16-3.74-11.87-2.29-17.79,0-2.08.82-4.19,1.61-7.86,3,4.67-7.34,8.86-12.3,16.52-12.67,1.13-.07,2.79-.45,3.38.14,5.64,5.8,10,1.43,14.84-1.43C252.59,329,256.26,330.39,259.5,338.86ZM200.37,130.54l55.72,14.3q-1.36,53.26-2.7,106.22c-14.18,3.49-23.34,12.26-30.82,23.29a27.24,27.24,0,0,0-4.31,21.19c1.7,8.66,4.49,17.11,6.78,25.65.39,1.4.68,2.81,1,4.33-4.67,3.51-9.38,6.55-13.5,10.22-6.16,5.44-9.11,12.28-6.93,20.62,1.79,6.82-3,10.06-6.89,13.84l-2.11-.36C197.87,290.53,199.12,211.25,200.37,130.54ZM69.06,583.78c3.72-11.67,9.74-22,17.2-31.77,19.1-25.13,37.8-50.57,56.44-76,9.22-12.6,18.42-25.26,26.81-38.41,5.19-8.16,9-17.2,13.16-26s7.23-18.08,12.08-26.42c5-8.52,10.6-16.36,22-18.74,11.71-2.42,22.86-7.55,34.31-11.33a60.56,60.56,0,0,1,7.57-1.54c.23.68.45,1.36.66,2-7.48,4.24-15,8.47-23.16,13.1,3.06,3.35,6,6.59,8.88,9.79,6,6.53,6.14,9.83.36,18.31q-4.28-3.33-8.57-6.64l-1.2.88,6.68,10.88c-4.71,10.58-9.11-2.06-14.37-.41,1.88,4.76,7.82,8.81,3.63,14.07-1.95,2.45-5.78,3.4-9.09,5.19-1-2.61-1.54-4.17-2.13-5.73-.7.2-1.4.18-1.68.52-2.24,2.74-4.92,5.3-6.53,8.41-4.58,8.7-10.54,15.5-20.28,18.58-1.81.59-3.63,2.88-4.4,4.78-4.71,11.76-9,23.68-13.66,35.46C168,497.64,162,512.45,156.09,527.3c-9.27,23.36-16.2,47.76-29,69.61-4.89,8.34-11.08,16-17.31,23.45-2,2.42-5.91,3.35-9.06,4.67s-6.68,2.4-10.08,3.44c-10.17,3.15-17.47-.82-21.12-9.24C64.41,607.44,65.25,595.61,69.06,583.78Zm109.76-94.42c2.83-7.64,5.28-14.21,7.73-20.78C188.49,476.77,189.44,484.56,178.82,489.36Zm-32.24,79.8c15,16.38,16.22,24.52,5.76,32.83-2.4-7.34-5.1-14.12-6.73-21.16C144.83,577.6,146.1,573.86,146.57,569.17Zm-3.78,42.73c-.66,2.83-3.26,5.62-5.69,7.52-5.78,4.55-12,8.52-18,12.85C114,636,108.64,634.2,103,633.38c19.55-10.4,28.14-29,38.36-48.44C143.45,595,144.78,603.43,142.79,611.9ZM156,861.54l-91.84-1.7c-.86-77.15,1.88-153.45,3.49-231,2.61,1.63,4.1,3,5.87,3.63,4.94,1.79,9.95,3.47,15,4.78a92.8,92.8,0,0,0,15.48,3c8.63.66,17.58,3.08,25-4.69a44,44,0,0,1,12.39-8.5c5-2.45,7.68-7,9.38-11.31,1.81-4.64,5.05-6.62,9.15-10.31C158.63,691.41,157.34,775.93,156,861.54Zm25.58.2H163.84c0-7.68-.09-15,0-22.34Q164.89,753.17,166,667c.27-21.62.7-43.21.88-64.8,0-3.58.84-5.8,4.12-7.93,5.05-3.26,9.4-7.59,15.52-12.69C184.84,676,183.21,768.57,181.58,861.74ZM350.48,721.6c-7.64,1-11.53.41-18.4-3v-8.16l-1.7-.39-2.31,8.29c-35.51,3.31-62.56,1.36-73.26-5.48-.18-3.24-.36-6.71-.57-10.72,1.54-.18,2.95-.66,4.24-.48,10.72,1.5,21.37,4,32.11,4.49s21.55-1,32.31-1.68c1.7-.11,4.1-.91,5-.09,6,5.48,12.87,2.74,19.46,2.63,4.4-.07,8.77,0,13.73,0C361.65,718.24,360,720.33,350.48,721.6Zm43.89-34.46c-.73,2.13.7,5,1.34,8.77a44.42,44.42,0,0,1-6.14,2.29c-8,1.86-16.13,3.53-24.2,5.23a4.28,4.28,0,0,1-2.56,0c-7.66-4-15.7-1.4-23.59-1.63-6.71-.18-13.39-1.16-20.1-1.5-7-.34-14.09-.54-21.14-.39-4.83.11-7.39-1.88-9.45-6.23C282,679.81,275,666.15,268.09,652.44c-.48-.93-1.45-1.61-3.53-3.87,0,3.24-.27,4.76,0,6.16,2.61,11.44,8.54,21.37,14.37,31.36,2.18,3.76,4.1,7.66,6.41,12-8.7,0-16.29.14-23.86-.07-4.24-.11-7-2.4-8.43-6.59-2.81-8.41-5.64-16.79-8.81-25.06-1.47-3.81-4.08-7.16-5.69-10.92-4.44-10.31-8.45-20.82-13-31.09-3.44-7.77-7.32-15.36-11.26-22.91-2-3.85-3.13-7.18-.82-11.56,2.56-4.87,2.49-9.9-.82-15.09-2.49-3.85-3.42-8.7-5-13,7.91-10.08,18.87-17.22,23.75-29.34-12.89,7.39-22.82,18.2-33.67,27.83s-20.53,20.28-31.18,30.93c-2.42-5.26-4.12-10.22-6.89-14.5s-6.46-7.64-10-11.69c8-21.71,16-43.62,23.7-64.6,7.27-3.9,14-6.84,19.94-11,3.35-2.38,5.23-6.82,7.91-10.24,1.63-2.08,3.6-3.9,5.23-6,3-3.83,6.91-6.34,6.91-12.8,0-7.43,4.83-9.61,13-9.61,8.88,0,17.86.29,26.62-.84,5.32-.68,10.33-3.81,16.56-6.28,2.95,3.63,6.5,7.86,9.9,12.21,7.09,9.09,13.89,18.4,21.21,27.28,5.53,6.73,7.86,6.34,14.12-.32,6-6.41,11.92-13,18.6-18.69,3.9-3.33,9.2-5.05,14-7.61,10.47,2.58,14.66,14,24.58,18.85,7.55-6.91,4.92-16.13,7.57-23.7,3-8.72.11-16.29-4-24.54,5.42,3.63,11.13,6.87,16.13,10.94a32.88,32.88,0,0,0,15.29,7.32c10.85,2.2,21.28,6.8,31.74,10.69a7.89,7.89,0,0,1,4.1,4.35c2.88,8,8.18,12.76,16.61,14.09,1.09.18,2.06,1,3.35,1.68,0,13.37.29,26.69-.2,40-.11,3.6-2.81,7.07-3.92,10.72-3.56,11.9-6.82,23.88-10.38,35.8a144,144,0,0,1-5.8,16.7c-1,2.27-3.42,4-5.44,5.66-12.69,10.58-26.78,18.51-43,22.45a23.42,23.42,0,0,0-4.06,1.77c-.39,4.44,1.2,6.73,5.51,5.71a51.78,51.78,0,0,0,10.83-3.69c8.88-4.4,17.58-9.15,27.51-14.37-1.5,3.74-2.38,6.48-3.6,9-7.77,16-16,31.79-23.29,47.95C402.19,664.72,398.27,676,394.37,687.13Zm61.5,111.93c-5.87-9.83-11.62-19.71-17.58-29.46-6.62-10.83-13.23-21.64-20.17-32.24-4.37-6.66-9.4-12.87-14-19.4-1.13-1.61-2.42-3.74-2.31-5.51.5-6.62.23-13-2.63-19.1-.41-.84.09-2.27.52-3.29,7.5-17.88,15-35.76,22.61-53.57,4.31-10,8.9-19.89,13.39-29.84a4,4,0,0,0,.54-1.68c-.75-12,9-18.83,13.48-28.26,3.35-7.07,8.27-13.64,8.07-22.18-.07-2.63,1.86-5.28,2.85-7.93.61.09,1.2.18,1.79.29l-4,251.35Z"/><path class="cls-3" d="M24.4,1192.53c3.35-.21,6.55-.57,9.06-.63A167.7,167.7,0,0,1,54.95,1193c.58-3.53,1.53-7,2.69-12.23L64.08,1194c5.16.64,10.32,1.3,15.49,1.88.22-11.55,3-22.32-3.84-31.81-5.87-8.09-13.35-14.41-22.43-20.55-.14,6,3.13,8.66,5.94,11.53,2.47,2.54,5.12,4.92,7.68,7.36,9.52,9.09,8.38,20,4.08,31.81-1.16-2.06-2.42-4.06-3.4-6.21s-1-5.08-2.52-6.5c-5.53-5.14-8.34-11.65-11.47-18.29-2-4.12-6.55-7-10.67-11.22,2.22-4.12.91-9.15-1.36-14.59-2.45-5.89-3.4-12.42-5.3-19.85,12-.82,22.7-1.95,31.41,7a8.4,8.4,0,0,0,.68.59c6.23,6.3,14.48,11.6,18.17,19.12,4.87,9.86,6.23,21.44,8.84,32.36.41,1.63-.54,3.6-.86,5.44l-1.88.14c0-9.18-.68-18.22-6.34-25.74-4.55-6-9.27-11.92-13.91-17.9-.59.23-1.16.45-1.72.66.11,1.79-.36,3.92.45,5.28a79.06,79.06,0,0,0,7.34,10c8.59,10.13,8.81,22.25,8.25,34.51-.14,3.15-2.31,4.9-5,7q6.21.66,12.45.95c6.14-5.82,8.61-14.25,7-20.54-2.31-8.86-3.58-18-6.32-26.71a42.6,42.6,0,0,0-8.07-14.52c-5.19-6-11.56-11.06-17.27-16.68-6.37-6.28-14-8.38-22.73-7.75-3.53.27-7.07.45-10.85.7-6.77-16.81-16.27-31.62-29-43.69a198.27,198.27,0,0,1-1.94,26.66c-.71,4.9-1.77,9.74-2.82,14.58l1-.2c6.07,11.56,9.92,12.55,25,6.55,1.54,6.3,1.84,13.26,4.85,18.67,4.12,7.41,1.86,13.62-.45,20.28-.14.41-.93.59-2,1.22a33.35,33.35,0,0,1-2.08-4.37c-2.9-9.2-8.72-11.49-16.81-6.12-3.85,2.54-7.21,5.82-10.9,8.88-.27-.3-.5-.6-.74-.9.3,2.55.59,5.1.85,7.63.65,6.5,1.39,22.22,6.15,27.73,3.61,4.18,10.53,4.45,17,4.08,0-.13,0-.25,0-.38C24.15,1192.29,24.26,1192.41,24.4,1192.53Z"/><path class="cls-3" d="M418,1162.11c-.84-9.09-1.95-18.15-3.19-27.19-.82-5.91.52-8.18,8.66-12.78-.57-8-8.81-7.64-13.73-12.35,1.86-2.67,3.76-5.39,6.3-9a66.88,66.88,0,0,0-32.45-9.18c.61,6.59,5.39,5.35,8.11,6.68,3.13,1.54,6.62,2.31,10.51,3.6-3.65,7.82-.25,12.17,6.21,15.18,2.15,1,4.12,2.4,6.84,4-6.84,7-4.89,13.26-4.64,19.76.67,18.62.56,37.25.44,55.87l8.39-.11c.06-2.64.11-5.28.11-7.92C419.66,1179.83,418.84,1170.94,418,1162.11Z"/><path class="cls-3" d="M604.84,1194.47c0-21.76,0-43.66,1.93-65.92L688.3,1131a3.83,3.83,0,0,1,.84,1.84,6.75,6.75,0,0,1,2.81-.57,6.38,6.38,0,0,1,3.72,1.09c0-.59.09-1.2.14-1.88l289.29,8.66c.56,2.63.81,23.32.84,53,2.14.05,4.28.08,6.42.16q.18-19.47.4-38.94a53.87,53.87,0,0,1,1.52-11.4c.27-1.13,2.24-1.9,3.42-2.83.57.39,1.16.77,1.74,1.16v52.33c2.45.11,4.9.21,7.34.34.05-2.78.1-5.54.16-8.33l12.92,1.38c.42,2.57.73,5.15,1.07,7.73l4.45.24c-.06-2.55,0-5.17,0-8.34,4.92-.34,9.24-.75,13.57-.91,4.55-.18,9.24-.77,13.69,0,8.14,1.32,15,4.57,20.18,10.52,5.43-.13,10.86-.35,16.3-.79,31.56-2.52,62.73-3.78,94.27-4.07a59.68,59.68,0,0,1,2.34-9.35c2.87-8.25,8.56-15.63,10.9-24,2.52-9-1.12-16.26-3.62-24.76-40.82-1.63-81.68-2.53-122.55-3.74-17.18-.5-34.35-1.16-51.53-1.61-1.95,0-5.14.14-5.69,1.22-3.06,6.21-9.54,4.78-13.32,4.28-29.55-3.83-59.23-1.27-88.8-2.79-22.16-1.16-44.39-1.25-66.59-1.88-5.28-.16-10.54-.59-15.84-.91,0-11.44,0-22.55,0-33.63,0-12.71.11-25.42.27-38.13q.48-42.66,1.07-85.33,1.16-80.45,2.4-160.95c.11-6.53-.36-13.23,1-19.53,1.65-7.66,1.88-14.57-2.95-21.14-.57-.79-.18-2.29-.25-3.78,6.46-4.69,14.28-3.44,21.34-4.24,36.16-4.12,72.4-7.61,108.6-11.33,40.65-4.19,81.28-8.47,122-12.55,37.12-3.74,74.28-7.07,111.39-10.9l.16,0c-.08-2.86-.16-5.72-.21-8.59-26.5,3.41-66.18,7.63-100.52,10.76-43.26,4-86.42,8.88-130.36,13.44-.32-3.26-.57-5.51-.75-7.75-.48-6.78-.7-13.57-1.5-20.3-.68-5.82.45-8,6-8.18,17.49-.77,34.35-5.23,51.41-8.63,9.52-1.88,19.31-2.56,28.94-3.9,24-3.35,48-6.87,72-10.11,12.58-1.7,25.2-3.22,37.84-4.4q17.21-1.59,34.45-3c-.42-4.84-.81-9.69-1.13-14.55-1,0-2,.06-3,.06-1.5-4.44-1.84-8.16-3.76-10.67-3.26-4.24-6,0-8.5,1.95-9.9-9.38-30.79-12.78-51.71-8.68-4.55,11,2.45,15.16,11.26,14.77a65.71,65.71,0,0,1,19.62,1.63c-5.08.29-10.15.61-15.23.86-22.48,1-45,1-67.39,3.35-20.23,2.11-40.22,6.73-60.77,10.33v17.79c-11.74,3-23.91,4.12-36.89,5.73,7.43-15.45,4.8-31.65,8.13-47.43l46.31-12.53c-3.94,6.43-10.67,9.88-8.86,17.11a23.82,23.82,0,0,0,8.66,13.35c3-4.71.39-7.48-1.63-10.11-2.76-3.58-3.35-6.59.41-10a14.93,14.93,0,0,0,4.33-6.64c2.11-7.5,8.7-8.36,14.46-10.15,1.77-.57,4.21,1.13,5.62,1.59,11.28-4,14.46-13.55,16.77-23.29,13.75,1.79,9.34-10.29,13.84-16.95l11.83,5.78c1.63-2.24,3.72-4.74,5.37-7.48,4.4-7.27,5.53-7.48,11.47-1.65.75.75,1.86,1.13,3.78,2.27.43-3.87,1-7,1-10,.18-6.34,3.19-11.35,7.3-15.77.84-.91,2.7-1.7,3.69-1.38s1.93,2,2.22,3.31c1.29,5.44,2.52,10.9,3.38,16.43a13,13,0,0,1-.88,6c-2.49,7.3-5.35,14.46-7.79,21.75a27.18,27.18,0,0,1-12.71,15.34c-4.33,2.52-8.9,5.26-12,9-5.17,6.21-12,6.89-19,7.77-8.7,1.11-17.18,1-24.95-3.94a59.82,59.82,0,0,0-9-4.89c10.88,16,20.19,20.08,46,12.53-.36,2.86-.73,5.53-1.18,9,4.4-1.36,5.42-4.53,6.87-7.25,3.44-6.48,8.52-10.83,15.2-14.16a31,31,0,0,0,12.21-10.88c3.6-6,5.26-13.14,7.66-19.83s4.67-13.32,6.64-19c12.05-9.18,23.43-18.06,35.05-26.6,9.7-7.16,15.52-17.22,19.69-27.87,2.7-6.87.52-14.43-4.1-20.82-6.25-8.68-15.73-8.86-24.74-9a193.62,193.62,0,0,0-58.75,7.79c-19.6,5.76-39.56,10.26-58.41,18.42-2.33,1-5.12,1-8.68,1.63-3.72-9.29-7.32-18.24-10.83-27,1.65-4.35,3.42-8.41,4.78-12.6,2.06-6.5,1-11.9-4.83-16.52a155.71,155.71,0,0,0-34.94-21c-6.78-2.95-14-4.92-20.82-7.59a16.35,16.35,0,0,1-5.46-3.94c-5.51-5.66-11.13-11.28-16.16-17.38-2.15-2.61-3-6.32-4.6-10,4.4-4.37,6.73-10.92,14.68-11.35,1.84-.09,4.3-3.29,5.08-5.53,3.24-9.54,10.11-16.61,16.29-24,3.1-3.72,4.19-7.3,3.17-11.24-2.24-8.56,1.61-14.39,7-20.26,5-5.46,10.38-11.06,13.41-17.58,3.42-7.36,4.19-15.91,6.53-23.84,2.67-9-1.68-16.84-5.23-24-2.47-5-9-8.07-14.48-12.71,1.45-17.74-4.94-34.46-17.18-48.33-7.5-8.47-17.31-15-26.31-22-3.44-2.72-7.48-4.67-11.78-7.3a32.58,32.58,0,0,0-2,4.19,36.28,36.28,0,0,0-.88,5.35c-11-4.44-21.89-7.27-33.1-5.66s-22,4.55-33.08,6.44c-11.87,2-18.81,11.49-28,18.47h9c-7.3,7-14.37,13.55-21.21,20.35A60.7,60.7,0,0,0,819,244.56c-4.28,6.66-8.93,12-19.24,8.09,1.77,18.06,2.9,34.67,17.38,47.18-3.13,10.17-1.06,20.32,1.77,30.32.93,3.26,3.38,6,4.69,9.2a22.07,22.07,0,0,1,2.11,8.09c0,18-1.4,36.05,2.36,53.75-10.22,3.29-20.26,5.91-29.82,9.7-15.7,6.19-31,13.3-46.65,19.67a22,22,0,0,1-11,1.65c-8.72-1.27-15,2.2-19.89,8.75a82.16,82.16,0,0,0-6.89,11.42c-11.83,22.91-24,45.61-35.21,68.84-14,29.09-27.55,58.41-38.18,89q-8.9,25.59-18.6,50.89c-2.63,6.91-2.7,13.05,1.34,19.44,5.21,8.23,9.92,16.79,15,25.13a11.4,11.4,0,0,0,3.56,3.92c15.11,9.22,30.16,18.54,45.54,27.3,6.07,3.44,12.89,5.55,19.74,8.41-1.68,4.21-2.92,7.5-4.31,10.74-1.93,4.49-1.4,8,3.42,10.33a18.28,18.28,0,0,1,4.85,3.83c7.07,7.41,7.52,15,.63,22.32-5.17,5.48-6.12,12-3.83,18.15,3.51,9.47,1.43,16.95-4.51,24.4-4.8,6-5.55,12.78-1.7,19.76,1.74,3.19,1.65,6.1.66,9.9-2.24,8.86-3.35,18.06-4.31,27.19-3,28.23-5.76,56.49-8.47,84.74-1.5,15.59-2.88,31.22-4,46.86-1,14.14-2.31,28.3-2.4,42.46-.09,14.43-.18,29,5.44,42.85,1.74,4.37,1.25,9.65,1.79,14.77-9,0-17.54.27-26.08-.07-17.72-.73-35.44-1.9-53.18-2.7-6.59-.29-11.06,4.1-11.19,10.7q-.56,31.37-1.09,62.74C600.71,1194.32,602.78,1194.38,604.84,1194.47Zm521.48-542.91-.07-2.31h4.6c.07.59.14,1.2.18,1.79ZM1054,671.79c4.62-.23,8.72-.41,13.69-.66-.73,4.31-1.38,8.13-2.11,12.46-5.28.79-10.42,1.54-15.57,2.29C1049.55,681.76,1049.66,681.38,1054,671.79ZM932.36,744.32c-5.42.57-10.83,1.22-16.25,1.74q-37,3.64-74.14,7.21c-2.06.2-4.26.27-6.1,1.11-6.3,2.85-12.71,5.8-11.08,14.59-13.91,2.08-27.15,4.44-38.43-5.89.25-11.71,3.69-23.72,10.26-36.19,12.92-3.6,25.29-7.23,37.75-10.49,10-2.63,20.1-4.78,30.14-7.23,8.47-2.08,14.73,3.35,21.41,6.62,12.17,5.94,24,12.67,35.82,19.17,3.81,2.08,7.43,4.55,11.13,6.84C932.72,742.65,932.54,743.48,932.36,744.32Zm128.29-186.69c7.16-3.06,15.36-3.9,23.18-5.12,4.49-.7,9.49-1.63,13.19,2.63-8.5,18.35-61.07,40.24-84.2,34.55a22.34,22.34,0,0,1,10.83-13.05A360.64,360.64,0,0,1,1060.65,557.64ZM953.7,484.49c-4.64-2.52-9.13-5.1-13.78-7.43-5.66-2.83-10.49-1.65-15.43,2.49a265.06,265.06,0,0,1-26.92,19.74c1.59-3.15,3-6.39,4.76-9.4,5.39-9.15,11-18.17,16.31-27.35,1.18-2,1.52-4.55,2.24-6.87-.59-.27-1.2-.52-1.79-.79-4.44,7.21-8.75,14.48-13.3,21.59-4.44,6.91-9.15,13.69-14.64,21.87-4-10-7.66-19.1-11.58-28.94l7.79-.82c16.31-1.61,26.26-12.19,34.76-24.77.79-1.2,1.84-3,1.5-4.08-1.84-6.05,2.36-8.23,6.23-10.92,2.15-1.47,3.76-3.69,5.66-5.53,2.24-2.22,4.53-4.4,7-6.8C947.47,427.39,954.18,469.09,953.7,484.49ZM834.95,435.1c-.27-6.12,1.81-10.06,6.68-13.46,9.49,6.41,14.41,17.79,24.47,21.3,3.81,17.74,13.14,32.83,17.11,50.57-11.94-3.33-20.64-11.17-29.8-15.57C847,482.54,841.84,486.17,835,491c-.39-11.62-1-21.41-1-31.22C834.07,451.55,835.33,443.3,834.95,435.1Zm78.67.11c-16.06,11.65-33.76,8.63-49.6-.07-8.13-4.46-13.87-13.44-20.42-20.6-2.58-2.83-4.17-6.53-6.66-9.45-2.86-3.35-3.72-6.93-3.94-11.31-.36-7.3-2.45-14.55-2.58-21.82-.34-17.95-.16-35.91.2-53.86.09-4,1.81-7.86,2.95-12.42,18.1,7.73,35.67,14.5,55.22,12.92.07.59.11,1.18.18,1.74l-14.21,5.39c11.51,3.49,23.29,2.88,43.41-1.7l-7.3,7.7c17.24-2.38,33.1-2.74,48.38-7.75,3.44-1.11,7.79.61,12.67,1.13-.75,5.08-1.27,9.09-1.95,13.1-1.59,9.58-3.06,19.19-5,28.71-.75,3.72-2.72,7.18-4.06,10.79C951.76,402.33,934.24,420.26,913.62,435.21Zm63.58-62.9c-5.39,6.19-11.06,12.33-14,20.3-.61,1.65-2.52,2.83-4.24,4.69.09-14.68,13.32-22,17.88-35.94-3.58,2.15-5.44,3.26-7.27,4.35-1.84-3.53,2.4-8.5,10.9-12.3C981.82,360.3,982.37,366.42,977.2,372.31ZM809.77,259.88c7.68-5.6,14-10.38,20.55-14.82a6.5,6.5,0,0,1,5.1-.48c18.51,6.32,34.83-.82,51.05-8.32,7-3.22,13.66-7,21.07-10.76,11.65,10.74,26.51,14.32,41.67,17.22,6.46,1.22,12.82,1.88,19.24-.36,2.95-1,5.82-.91,7.7,2.36,2.92,5.1,6,10.11,9.15,15.41-2.7,2.27-5,4-7.11,6-5.53,5.26-7.73,14.48-4.76,19.4,2.9,4.76,12.33,7.48,19.33,5.21,2.76-.88,5.21-2.65,7.89-3.87,1.95-.93,4.33-1.63,4.83,1.36.18,1-1.54,3.4-2.61,3.56-12.44,1.74-19.33,10.47-25.74,19.89-.82,1.18-1.72,2.31-2.95,3.9l-6.25-3.22c6.3-7.75,5.82-9.45-3.35-12.87-3.74-1.4-7.57-2.65-13.07-4.55,10.88-4.4,11.76-13.14,13.07-21.07,1.72-10.6-6.91-20.19-18.17-22.52-9.54-2-19.24-3.33-29-1.74-2.58.41-5.21.57-8.9,1,1.95-3.24,3.38-5.6,5.08-8.38-5.44-3.51-10.38-1.59-15.25.23-18.17,6.8-34.17,17.42-49.92,28.5-.7.5-1.47.93-1.88,1.18C834.13,269.53,821.92,267.51,809.77,259.88ZM704.46,737.43c-20.21-6.62-37.7-18.44-55.74-29.16-2.72-1.61-5.55-3.81-7.09-6.46-5.05-8.7-9.38-17.79-14.37-26.53a8.08,8.08,0,0,1-.57-7.45c12.8-37.18,24.63-74.73,41.06-110.58,6.64-14.5,12.73-29.28,19.76-43.6,7.14-14.52,15.16-28.6,22.64-43,1.9-3.65,3.08-7.68,4.94-11.35,2.4-4.71,4.51-9.81,7.89-13.78,8-9.43,13.5-11.53,27.42-5.37,6.64,2.95,12.89,6.73,20.51,10.76-.63-10.94-10.83-9.49-15.27-15.68,25.88-9,49.1-24.27,76.75-27.92,2.11,3.53,3.9,6.55,5.91,10-7.21,4.33-8.63,10.81-8.43,18.81.45,19,0,38-.14,56.94,0,3.19,0,6.39,0,10.67,2.33-1,4.37-1.31,4.58-2.08,2.63-10,12.48-11.69,19.31-16.74,1-.77,4,.29,5.64,1.29,8.07,4.89,15.84,10.33,24,15,3.87,2.2,8.45,3.17,13.89,5.14,9.09-6.41,19.35-13.26,29.18-20.66,7.84-5.89,10.51-6.39,19-1.29,4.06,2.42,8.18,4.78,12.58,7.36,3.22-2.92,1.61-6.68,1.22-9.83-1.65-13.53-3.72-27-5.62-40.47-.27-2-.5-4.08-.93-7.41,11.19,10.2,17.9,22.68,26.67,33.35l2.13-1.43c-2-4.33-4-8.68-6.71-14.62,10,4.46,18.92,8,27.46,12.39,7.64,3.87,14.82,8.66,22.27,12.89,3.1,1.77,4.06,4.19,3.1,7.43a64.86,64.86,0,0,1-3.17,9.2,16.29,16.29,0,0,0-.29,13.71c3.22,8.2,6,16.54,9.06,25-12.8,5.89-26.44,12.17-41.33,19-.75-18.94,2.06-37.55-2.27-55.51-.68,0-1.38,0-2.08,0-.18,3.65-.39,7.32-.57,11l-2.11,41.67c-.25,5.23-2.67,8.29-7.61,10.76-20.87,10.47-38.77,25.11-55.4,41.28-4.65,4.51-8.45,9.9-13.26,15.63L887,618.36c4-30.52,5.14-60.2,1.13-90-.73,30.77-2.13,61.47-6.48,91.86-21.21,6.46-42.35,10.94-62.74,20.91,4.35,3.1,7.23,1.13,9.92.23,11.78-4,23.47-8.27,35.28-12.17,5.19-1.72,10.6-2.83,17.11-4.51-1.74,14.12-3.31,26.92-5,40.4-16.18,2.33-31.45.66-48.22-5.1,3.33,8,8.47,11.42,14.25,12.53,6.84,1.31,14,.88,21.07,1.22l11.33.52c-1.63,9.38-3.13,17.83-4.62,26.26l2.4.54c5.28-8,5.51-17.81,7.91-27.49,12.28-2.33,25.47-2.27,37.91-9-6.8-3.69-12.8-.09-18.69-.43s-11.71-.09-17.49-.09c1.38-12.3,2.95-24,3.87-35.73.32-4.19,2.13-6,5.76-6.39,4.67-.5,9.36-.57,13.6-.79.36,6.68.2,12.55,1.18,18.24a11,11,0,0,0,4.74,6.93c9.83,5.71,20.28,9.06,32,7.82,10.76-1.16,21.64-1.36,33.19-2-1.27,16-2.63,31.75-9.27,47.27l-10.33,1.29c-2.56,13.35,1.4,27.33-1.56,41.53-5.62.45-11.1.91-17.22,1.43C936.8,735,929.8,732.25,923.16,729c-13.19-6.5-26.78-12.12-39-20.62-8-5.57-17.56-6.75-27.15-4.31-12.89,3.33-25.72,7-38.57,10.56-3.15.86-6.28,1.77-9.38,2.76-8.13,2.63-15.32,2.7-20.6-5.78-1.59-2.56-4.89-4.19-7.59-6-11.87-7.73-24.06-15-35.69-23.11s-22.75-17-34.67-25.94c3.56-6.28,7.09-12.49,11.28-19.83,3.56,6.8,3.44,12.69,4.55,18.33,1,4.92-.82,11.31,6.62,14.91-.57-11.58-.84-22.16-4.08-32.27a19,19,0,0,1,1.47-16c8.34-15.66,16.13-31.63,24.43-47.33,1.72-3.29,4.51-6.1,7.16-8.77,10.17-10.31,20.53-20.46,30.75-30.75a7.14,7.14,0,0,0,2.08-5.39c-9.13,7.91-18.29,15.79-28.82,24.9,6.46-17.54,13.69-33,18.26-49.28l-2.08-.82c-7.55,16.54-14.77,33.24-22.73,49.6-8,16.54-16.56,32.83-25.2,49.06s-17.63,32.2-26.94,49.17c-15.2-9.45-30.84-13.48-47.83-9.09a46.45,46.45,0,0,0-6.62,2.76l.61,2.06c2.13-.18,4.24-.34,6.34-.57,13.75-1.56,27.28-1.86,39.18,7a14.38,14.38,0,0,1,2.06,2.29c3.74,2.22,7.86,4,11.15,6.73a740.33,740.33,0,0,0,62.95,46.41c6,4.06,11.74,8.7,17.88,13.3a103.33,103.33,0,0,0-13.16,44c3.74.73,6.84,1.31,11.08,2.11-8.93,6.55-13.35,8-16.43,3.22-6.25-9.65-16.63-9.43-25.31-13.32-13.78-6.19-27.26-13-40.83-19.51A35.94,35.94,0,0,0,704.46,737.43ZM692.2,1029.71c2.33-22.36,4.12-44.77,6.14-67.16,1.7-19.1,3.33-38.2,5-57.28,1-11.47,1.43-23,3.44-34.31,1.34-7.59,2.4-14.52-1.29-21.73a9.37,9.37,0,0,1,.2-7.57C709,835.43,713,829.59,717.08,823c-1.11-3.67-2.06-8-3.76-12.08-2.06-4.94-.68-8.57,3-11.92,2.74-2.49,7.18-4,6.89-8.61-.48-8.07.25-16.56-6.23-23-2.72-2.67-5.6-5.19-8.79-8.13,1.22-3.33,2.42-6.53,4-10.72,5.87,2.86,10.81,5.33,15.82,7.68,5.89,2.76,11.62,6,17.76,8,11,3.58,22,6.68,31.5,13.71,4.19,3.1,8.61,2.72,13.41.59,3.06-1.34,6.75-1.59,10.2-1.65,7.3-.16,14.61.23,21.93.2,3.78,0,6.34,1.65,6.14,4.58-.79,10.56-1.65,21.12-2.52,31.68a12.66,12.66,0,0,1-1,2.42,61.6,61.6,0,0,1-6.46,0c-10.31-1.13-20.62-2.36-30.91-3.58-3-.36-5-1.68-7.09-4.35-3.4-4.37-8.16-7.68-12.35-11.44l-26-23.27c-3.17,3.31-2.52,6.23-.48,9,4.33,5.94,8.77,11.76,13.23,17.61,1.13,1.5,2.45,2.88,3,5.23-10.06-3.69-20.12-7.41-31.45-11.6,2,8.11,7.32,12.37,13.39,14.52,20.57,7.27,41.35,13.94,63.47,15,7.07.34,14.09,1.56,22.3,2.52.57,50.3-1.38,100.56-1.95,150.82s-1.7,100.58-2.61,151.68l-119.46-3c-.66-2.4-.75-3-1-3.53C688.5,1091.71,689,1060.89,692.2,1029.71Z"/><path class="cls-3" d="M1192.45,752.4c0-.64,0-1.28,0-1.92a9.65,9.65,0,0,1,1.88-6c0-1-.09-2.07-.13-3.11-8.18.89-16.36,1.8-24.53,2.66-26.22,2.76-52.48,5-78.67,7.7s-52.36,5.8-78.56,8.5c-15.63,1.61-31.34,2.58-47,4.12-20.62,2-41.22,4.46-61.84,6.44-7.93.75-16,.45-23.88,1.06-9.74.77-19.44,1.86-29.12,3.08-1.81.23-3.47,1.63-5.76,2.79,1.13,1.52,1.65,3,2.47,3.17,6.68,1.47,12.67,5.17,20.23,3.58,10.94-2.29,22.16-3.35,33.31-4.62,17-1.95,34.1-3.63,51.16-5.44,4.37-.45,8.77-1.38,13.14-1.47,22.73-.48,45.36-1.38,67.61-6.55,1.7-.41,3.56-.09,5.32-.23l89.39-7.07c12.94-1,25.9-1.79,38.81-3,5.85-.57,11.56-2.56,17.4-3Z"/></g></g></g></svg>