<?xml version="1.0" encoding="UTF-8"?>
<svg width="1440px" height="1280px" viewBox="0 0 1440 1280" version="1.1" xmlns="http://www.w3.org/2000/svg" xmlns:xlink="http://www.w3.org/1999/xlink">
    <!-- Generator: Sketch 49.3 (51167) - http://www.bohemiancoding.com/sketch -->
    <title>hero</title>
    <desc>Created with Sketch.</desc>
    <defs>
        <polygon id="path-1" points="0 0 1440 0 1440 1033.13701 0 1280"></polygon>
    </defs>
    <g id="Dirty-Pillows" stroke="none" stroke-width="1" fill="none" fill-rule="evenodd">
        <g id="hero">
            <mask id="mask-2" fill="white">
                <use xlink:href="#path-1"></use>
            </mask>
            <use id="Mask" fill="#D8D8D8" xlink:href="#path-1"></use>
            <g mask="url(#mask-2)">
                <g transform="translate(-17.000000, -40.000000)">
                    <rect id="Rectangle-path" fill="#D1E9F2" fill-rule="nonzero" x="0" y="0" width="1470" height="1470"></rect>
                    <g id="Group" opacity="0.5" stroke-width="1" fill="none" fill-rule="evenodd" transform="translate(0.000000, 3.000000)">
                        <path d="M1385.475,794.092887 L1379.70525,794.729941 L1379.6195,791.89995 L1385.2545,791.89995 C1385.377,792.659515 1385.475,793.419079 1385.475,794.092887 Z" id="Shape" fill="#2D83A6" fill-rule="nonzero"></path>
                        <path d="M360.97075,1459.12867 L380.42375,1457.73205 C382.2245,1447.37992 383.2045,1436.34172 386.169,1425.87933 C392.3675,1403.97446 398.076,1381.77556 406.7735,1360.78952 C419.94225,1329.07156 434.2135,1297.72114 451.54725,1267.93885 C456.44725,1259.49787 460.6735,1250.04007 467.54575,1243.53476 C474.418,1237.02946 478.57075,1231.85951 472.3355,1222.84274 L480.75125,1218.54263 C479.3425,1216.76623 478.7055,1215.16134 477.603,1214.7448 C474.7365,1213.64221 470.4245,1211.49828 469.028,1212.64987 C466.68825,1214.49978 465.353,1218.62838 465.16925,1221.87491 C464.99775,1224.80291 466.9455,1227.86567 467.754,1230.25463 C441.20825,1261.39679 425.0505,1297.8559 408.366,1333.99649 C391.42425,1370.67612 378.672,1408.65436 373.51475,1448.56827 C361.26475,1452.24358 357.19775,1454.33851 355.94825,1459.23893 C357.606083,1459.17359 359.28025,1459.13684 360.97075,1459.12867 Z" id="Shape" fill="#2D83A6" fill-rule="nonzero"></path>
                        <path d="M257.446,1462.84074 C263.571,1455.02457 265.86175,1445.56676 268.75275,1436.47649 C274.547,1418.25918 281.26,1400.3114 283.9795,1381.13851 C286.80925,1361.13255 292.27275,1341.40837 293.91425,1321.35341 C295.6905,1299.54654 294.441,1277.48241 294.3185,1255.52854 C294.3185,1253.37235 292.95875,1251.21617 292.22375,1249.05998 L290.65575,1249.2315 C290.099429,1250.78248 289.689311,1252.38207 289.43075,1254.00941 C288.20575,1273.15779 287.32375,1292.33068 285.75575,1311.44231 C282.768498,1350.8788 275.137032,1389.82481 263.01975,1427.47197 C259.151144,1438.7681 254.408289,1449.7456 248.83425,1460.30477 L248.5035,1460.96633 C251.468,1461.60338 254.44475,1462.24044 257.446,1462.84074 Z" id="Shape" fill="#2D83A6" fill-rule="nonzero"></path>
                        <path d="M237.07425,1458.79789 C243.37075,1435.03086 249.704,1412.06015 255.44925,1388.96693 C260.05525,1370.38209 264.2815,1351.67474 267.82175,1332.85714 C269.61025,1323.37483 271.166,1313.57399 268.77725,1303.63839 C266.580959,1307.71996 265.015616,1312.11073 264.1345,1316.66126 C259.847,1337.23076 256.172,1357.94728 251.3455,1378.38203 C245.7595,1402.02654 239.30375,1425.46279 232.9705,1448.92355 C232.3335,1451.2635 230.04275,1453.46869 227.997,1455.04907 C227.054997,1455.7636 226.199847,1456.58593 225.449,1457.49928 C229.34457,1457.72329 233.225264,1458.15679 237.07425,1458.79789 Z" id="Shape" fill="#2D83A6" fill-rule="nonzero"></path>
                        <path d="M459.50975,908.027615 C461.137703,910.601843 462.598466,913.278092 463.883,916.039799 C470.993329,934.25116 475.25729,953.448887 476.525,972.958159 C478.1665,996.051381 480.84925,1019.0711 483.0175,1042.12756 C483.71575,1049.47819 485.198,1057.09834 477.8725,1065.13503 C476.9415,1060.50413 476.1085,1057.61289 475.80225,1054.67264 C473.9035,1036.29607 471.9925,1017.9195 470.36325,999.542929 C469.473083,989.4399 468.885083,979.312368 468.59925,969.160335 C468.021498,952.831802 465.134502,936.667368 460.02425,921.148485 C458.79925,917.154644 458.1745,912.952536 457.28025,908.897439 L459.50975,908.027615 Z" id="Shape" fill="#2D83A6" fill-rule="nonzero"></path>
                        <path d="M517.10925,1081.02464 C518.94675,1088.64479 521.39675,1096.19143 522.5115,1103.92184 C530.325957,1156.99095 534.875181,1210.48982 536.1335,1264.11652 C536.1335,1264.81483 534.9085,1265.54989 532.64225,1267.9511 C531.552,1260.919 530.327,1255.49178 529.935,1250.00331 C527.485,1215.61463 525.65975,1181.18919 522.86675,1146.825 C521.2865,1127.33359 518.273,1107.96469 515.921,1088.53453 C515.63925,1086.15782 515.46775,1083.76887 515.24725,1081.39217 L517.10925,1081.02464 Z" id="Shape" fill="#2D83A6" fill-rule="nonzero"></path>
                        <path d="M358.925,908.125623 C366.765,918.698276 365.84625,930.716552 367.36525,941.975264 C367.80625,945.246293 364.08225,946.189623 360.01525,944.817506 L358.5575,914.189891 C349.468,918.833038 346.3075,925.865138 343.20825,932.492954 C335.65,948.456067 328.58175,964.77446 321.40325,980.982594 C316.87075,991.224469 312.522,1001.5521 307.92825,1011.76947 C306.70325,1014.51371 304.91475,1017.00067 302.17075,1021.68057 C308.49175,988.651749 343.6615,918.600268 358.925,908.125623 Z" id="Shape" fill="#2D83A6" fill-rule="nonzero"></path>
                        <path d="M272.097,1246.80579 L263.60775,1256.01858 L280.14525,1271.11187 L268.26275,1286.1929 C261.6845,1281.84378 261.6845,1281.84378 269.48775,1269.87451 C266.3395,1267.06902 262.79925,1264.5208 260.0675,1261.29878 C256.9315,1257.62346 256.9315,1253.3846 260.0675,1249.36626 C262.9585,1245.86246 265.61675,1242.35866 272.097,1246.80579 Z" id="Shape" fill="#2D83A6" fill-rule="nonzero"></path>
                        <path d="M408.45175,898.778075 C422.75975,905.846929 430.6365,924.725791 428.34575,945.33205 C420.2485,929.356686 417.5535,913.834611 408.45175,898.778075 Z" id="Shape" fill="#2D83A6" fill-rule="nonzero"></path>
                        <path d="M1467.3785,1217.36653 C1474.32425,1169.47719 1465.443,1119.60318 1463.86275,1071.44432 C1462.356,1025.5029 1461.16775,979.561473 1460.8615,933.583297 C1437.1455,935.396452 1413.44175,937.258611 1389.7135,938.753238 C1370.579,939.978343 1351.35875,939.757824 1332.24875,941.203448 C1310.946,942.845088 1289.76575,945.9201 1268.54875,947.917021 C1246.89075,949.938444 1225.1715,951.408569 1203.47675,953.099213 C1170.9285,955.622929 1138.368,957.999632 1105.81975,960.67036 C1091.04625,961.895464 1076.29725,963.377841 1060.91125,964.811213 C1059.68625,970.703967 1058.31425,974.893824 1058.16725,979.132686 C1057.33425,1002.33617 1056.538,1025.5519 1056.23175,1048.76763 C1055.3375,1118.51284 1054.68825,1188.25804 1053.9165,1258.00325 C1053.63475,1283.06889 1053.26725,1308.14678 1053.02225,1333.21242 C1052.9365,1341.78815 1055.15375,1344.33637 1063.36125,1345.46346 C1067.66892,1346.10168 1072.00745,1346.51063 1076.3585,1346.68857 C1108.26975,1347.54614 1140.19325,1348.39146 1172.1045,1349.02852 C1200.696,1349.59207 1229.29975,1349.65332 1257.8545,1350.36388 C1288.2345,1351.1112 1318.59,1352.55682 1348.97,1353.32864 C1385.04625,1354.24746 1421.1225,1354.83551 1457.19875,1355.61958 C1453.81775,1309.35963 1460.75125,1263.07518 1467.3785,1217.36653 Z M1291.06425,985.049941 L1303.31425,990.011615 L1302.273,992.29031 L1290.13325,987.585908 L1291.06425,985.049941 Z M1285.55175,981.595146 C1279.08375,985.184703 1276.16825,983.077523 1274.03675,978.091347 L1285.55175,981.595146 Z M1271.83175,992.853858 C1267.287,998.121808 1264.48175,993.968703 1260.65975,992.621088 C1265.131,986.593573 1267.9485,991.00395 1271.83175,992.841607 L1271.83175,992.853858 Z M1263.42825,1000.38825 C1257.98925,1004.29633 1257.98925,1004.29633 1251.17825,997.178477 L1263.42825,1000.38825 Z M1268.45075,975.54313 C1262.387,976.853992 1262.387,976.853992 1256.98475,974.085255 C1260.80675,970.618209 1260.80675,970.618209 1268.4385,975.530879 L1268.45075,975.54313 Z M1255.19625,983.665573 C1255.19625,984.588485 1255.19625,985.507314 1255.19625,986.422059 C1251.0435,988.700753 1247.50325,988.333222 1243.2525,982.072937 L1255.19625,983.665573 Z M1240.32475,977.968837 C1232.23975,980.860084 1226.2495,979.010176 1213.91375,970.789724 C1224.52225,968.266008 1230.79425,975.2001 1240.3125,977.944335 L1240.32475,977.968837 Z M1196.4085,971.475782 L1210.153,976.964251 C1203.636,980.762075 1199.9855,975.971916 1195.355,974.171013 L1196.4085,971.475782 Z M1199.89975,984.951933 C1193.23575,990.170879 1190.406,989.521573 1183.80325,980.419046 L1199.89975,984.951933 Z M1190.09975,993.82169 C1182.87225,998.918126 1179.773,993.405155 1174.236,993.23364 C1180.44675,987.083615 1183.938,992.265808 1190.07525,993.784937 L1190.09975,993.82169 Z M1180.6305,978.507883 C1177.715,982.820251 1174.9955,981.154109 1171.394,979.157188 C1174.775,975.016335 1177.50675,975.408368 1180.606,978.507883 L1180.6305,978.507883 Z M1163.98275,984.633406 L1170.32825,985.258209 L1170.32825,987.438895 L1163.701,987.96569 L1163.98275,984.633406 Z M1166.87375,1009.62554 C1162.4515,1015.57955 1162.4515,1015.57955 1152.529,1008.85372 C1158.59275,1004.81088 1162.16975,1009.7113 1166.8615,1009.62554 L1166.87375,1009.62554 Z M1159.15625,981.595146 C1153.10475,986.422059 1148.756,981.16636 1141.76125,979.512469 C1151.5,976.841741 1151.5,976.841741 1159.144,981.595146 L1159.15625,981.595146 Z M1142.61875,1027.69583 L1142.092,1029.20271 L1134.987,1026.7525 L1135.5015,1025.28238 L1142.61875,1027.69583 Z M1125.53,992.915113 L1138.3435,997.889038 C1130.83425,1000.73128 1128.33525,996.308653 1124.5255,995.622594 L1125.53,992.915113 Z M1101.03,982.709992 L1113.28,986.838594 L1112.3,989.374561 L1100.13575,985.074444 L1101.03,982.709992 Z M1103.333,998.807866 C1096.95075,1000.10648 1096.95075,1000.10648 1087.19975,994.740519 C1093.2145,990.722176 1095.787,991.334728 1103.284,998.807866 L1103.333,998.807866 Z M1092.7,1005.81546 C1090.4705,1010.47086 1087.4815,1011.87973 1083.292,1009.12325 C1080.5235,1007.29784 1074.60675,1007.07732 1078.833,1000.4005 C1081.56475,1001.27033 1083.6105,1001.78487 1085.5705,1002.56894 C1087.8,1003.47551 1090.054,1004.60261 1092.7,1005.81546 Z M1074.668,1039.11381 L1093.2635,1046.6727 C1085.55825,1050.05399 1079.6905,1047.8243 1074.668,1039.11381 Z M1085.791,1075.16864 L1084.762,1076.90828 L1075.80725,1073.77202 C1077.74275,1072.92669 1078.5635,1072.21613 1079.09025,1072.38765 C1081.3565,1073.18397 1083.5615,1074.22531 1085.791,1075.18089 L1085.791,1075.16864 Z M1076.0645,1031.54266 C1082.71625,1030.41556 1082.71625,1030.41556 1087.46925,1035.57326 L1076.0645,1031.54266 Z M1083.59825,1024.19203 C1091.965,1018.17677 1095.4685,1025.24562 1100.4175,1025.73567 C1094.5865,1031.3834 1090.62975,1025.36813 1083.59825,1024.19203 Z M1083.782,986.09128 L1073.40625,992.755849 C1073.4675,983.285791 1077.52225,985.098946 1083.782,986.09128 Z M1074.2515,1080.28957 L1080.548,1082.67853 L1079.75175,1084.78571 L1073.492,1082.3355 L1074.2515,1080.28957 Z M1076.17475,1105.13469 L1082.78975,1110.63541 C1077.363,1111.75026 1075.207,1110.83143 1076.1625,1105.13469 L1076.17475,1105.13469 Z M1074.11675,1097.03675 C1083.45125,1091.42577 1087.4815,1097.45329 1092.21,1101.03059 C1086.02375,1104.30162 1081.528,1099.70748 1074.1045,1097.03675 L1074.11675,1097.03675 Z M1099.5355,1094.66005 L1087.4815,1089.11033 L1088.98825,1087.00315 L1100.5155,1092.46711 L1099.5355,1094.66005 Z M1103.088,1084.92047 L1096.04425,1082.22524 L1097.34275,1080.6571 L1103.39425,1084.1609 L1103.088,1084.92047 Z M1098.6045,1054.43987 C1104.64375,1049.68646 1108.04925,1053.6803 1112.447,1056.32653 C1106.65275,1061.25145 1103.24725,1057.31886 1098.59225,1054.43987 L1098.6045,1054.43987 Z M1104.1905,1031.56716 L1112.67975,1029.88877 C1108.39225,1033.90711 1108.39225,1033.90711 1104.166,1031.56716 L1104.1905,1031.56716 Z M1095.94625,1014.79548 C1102.843,1006.79555 1108.26975,1012.70055 1114.46825,1015.15076 C1106.92225,1021.59481 1106.92225,1021.59481 1095.934,1014.79548 L1095.94625,1014.79548 Z M1112.3,1002.09115 L1125.334,1005.54594 L1124.9665,1008.24117 C1119.307,1010.71588 1115.59525,1007.18758 1112.3,1002.09115 Z M1130.92,1040.84121 C1125.95875,1044.60228 1122.345,1040.84121 1118.2045,1039.24857 C1124.19475,1035.43849 1124.19475,1035.43849 1130.9445,1040.82895 L1130.92,1040.84121 Z M1116.7835,1061.98651 C1123.668,1057.17185 1127.882,1063.10136 1133.45575,1064.96351 C1127.35525,1069.12887 1126.74275,1069.00636 1116.808,1061.97426 L1116.7835,1061.98651 Z M1126.461,1054.13359 C1133.909,1053.93757 1133.909,1053.93757 1139.3235,1060.02634 L1126.461,1054.13359 Z M1136.93475,1045.83963 C1143.23125,1043.18115 1145.2525,1043.59769 1153.22725,1049.18417 C1146.88175,1053.98658 1146.88175,1053.98658 1136.95925,1045.82738 L1136.93475,1045.83963 Z M1142.76575,1018.20127 C1147.923,1014.64847 1151.2305,1018.06651 1155.40775,1020.65148 C1149.57675,1026.49523 1146.6,1019.86741 1142.79025,1018.18902 L1142.76575,1018.20127 Z M1163.211,1062.55006 C1165.74675,1056.35103 1167.80475,1054.03558 1172.864,1058.87474 L1163.211,1062.55006 Z M1160.18525,1026.86276 C1166.23675,1021.75408 1170.071,1027.9041 1174.76275,1029.31297 C1168.1845,1035.19347 1164.86475,1028.51665 1160.18525,1026.86276 Z M1170.071,1019.51213 C1176.50225,1012.6638 1178.14375,1012.90882 1187.55175,1021.17828 C1180.7775,1027.8796 1176.3675,1019.94092 1170.071,1019.51213 Z M1184.88125,1038.17048 C1188.77675,1036.10005 1188.77675,1036.10005 1194.68125,1038.67277 C1189.31575,1040.49818 1189.31575,1040.49818 1184.869,1038.18273 L1184.88125,1038.17048 Z M1197.217,1030.81985 C1197.59675,1028.71267 1197.609,1026.93627 1197.9765,1026.86276 C1200.31523,1026.44855 1202.67482,1026.16226 1205.04475,1026.00519 L1205.253,1029.6805 L1197.217,1030.81985 Z M1191.69225,998.685356 C1199.99775,996.884452 1203.391,1000.91505 1209.43025,1005.0804 C1201.4065,1006.03598 1197.18025,1003.8553 1191.69225,998.685356 Z M1202.509,992.388318 C1206.821,987.340887 1206.821,987.340887 1219.904,993.748184 C1213.05625,999.383665 1213.05625,999.383665 1202.509,992.376067 L1202.509,992.388318 Z M1222.3295,1013.70514 L1216.082,1011.13242 L1216.67,1009.30701 L1223.29725,1011.34069 L1222.3295,1013.70514 Z M1214.55075,980.100519 L1228.76075,985.417473 C1222.2805,988.492485 1218.042,985.331715 1214.55075,980.100519 Z M1226.2495,1003.50002 L1226.1025,1000.13098 L1236.907,1000.13098 C1233.134,1006.66079 1229.71625,1005.26417 1226.225,1003.50002 L1226.2495,1003.50002 Z M1235.6085,1020.79849 L1235.69425,1019.00984 C1236.78655,1018.76288 1237.90958,1018.6803 1239.02625,1018.76482 C1239.90825,1018.96084 1240.631,1019.85516 1241.08425,1021.83983 L1235.6085,1020.79849 Z M1234.6775,992.474075 C1240.092,987.794176 1242.4195,990.991699 1245.5065,993.025372 C1241.611,998.330075 1239.00175,993.662427 1234.6775,992.474075 Z M1243.68125,1010.07883 C1247.001,1004.73737 1250.32075,1006.8078 1254.5225,1010.20134 C1249.21825,1013.04358 1249.21825,1013.04358 1243.6935,1010.09108 L1243.68125,1010.07883 Z M1259.1285,1030.10929 L1252.50125,1027.65908 L1253.08925,1025.72341 L1259.8635,1027.72033 L1259.1285,1030.10929 Z M1260.525,1017.06192 C1265.229,1010.3361 1268.94075,1016.1676 1273.3385,1017.56422 C1267.875,1023.28546 1267.875,1023.28546 1260.525,1017.06192 Z M1269.541,1007.06507 C1274.96775,1003.69603 1278.312,1007.56736 1284.486,1009.89506 C1277.038,1013.16609 1273.35075,1009.7113 1269.541,1007.10182 L1269.541,1007.06507 Z M1277.0135,999.212151 C1283.016,994.924285 1287.53625,998.771113 1293.208,1001.40509 C1286.25,1007.94715 1281.95025,1001.07431 1277.0135,999.236653 L1277.0135,999.212151 Z M1299.676,1010.15233 C1301.06025,1005.42343 1303.09375,1004.13707 1307.222,1008.42494 L1299.676,1010.15233 Z M1316.47075,979.193941 L1307.74875,975.604385 L1309.231,973.680971 L1317.12,977.748318 L1316.47075,979.193941 Z M1310.75,966.391598 C1318.30825,965.031732 1324.5925,967.971983 1330.55825,971.941322 C1322.47325,975.408368 1317.414,968.155749 1310.75,966.391598 Z M1330.987,972.112837 L1341.04425,975.151096 C1334.466,979.843247 1332.93475,979.255197 1331.036,972.112837 L1330.987,972.112837 Z" id="Shape" fill="#2D83A6" fill-rule="nonzero"></path>
                        <path d="M858.725,800.91672 L864.85,810.105004 C851.522,806.919732 840.09275,809.051414 829.41075,812.653222 C819.04725,816.14477 809.578,822.245791 797.181,828.469322 C800.01075,824.548987 801.15,822.12328 803.012,820.542895 C816.37675,809.186176 831.6525,802.435849 849.415,801.982561 C852.649,801.896803 855.87075,801.529272 859.08025,801.272 L858.725,800.91672 Z" id="Shape" fill="#2D83A6" fill-rule="nonzero"></path>
                        <path d="M853.335,773.266109 C844.9805,775.165021 838.2185,771.697975 830.95425,767.287598 C838.69625,764.690377 842.604,765.633707 853.335,773.266109 Z" id="Shape" fill="#2D83A6" fill-rule="nonzero"></path>
                        <path d="M422.625,829.976201 C424.18075,790.515582 427.0595,751.054962 426.937,711.606594 C426.8145,672.56251 423.66625,633.518427 422.39225,594.486594 C433.98075,672.783029 435.561,751.201975 425.50375,829.706678 L422.625,829.976201 Z" id="Shape" fill="#2D83A6" fill-rule="nonzero"></path>
                        <path d="M381.62425,750.197389 C377.94925,754.791531 374.27425,755.967632 369.57025,754.950795 C352.98375,751.422494 335.797,749.842109 321.13375,740.13928 C316.293309,737.086202 311.745531,733.592029 307.5485,729.701389 C300.87225,723.220586 294.67375,716.225238 288.4875,709.278895 C287.56875,708.237556 287.86275,706.105874 287.2625,702.761339 C295.53125,710.111967 302.36675,716.298745 309.386,722.363013 C322.371,733.474711 337.561,739.796251 354.23325,743.006025 C360.983,744.304636 367.70825,745.627749 374.4335,747.183632 C376.74875,747.649172 378.80675,748.960033 381.62425,750.197389 Z" id="Shape" fill="#2D83A6" fill-rule="nonzero"></path>
                        <path d="M453.31125,851.109255 C460.306,830.08646 469.812,810.154008 480.26125,790.001038 C485.16125,793.958126 483.1155,798.160234 481.7435,801.370008 C475.055,816.96559 467.96225,832.389657 460.845,847.801473 C459.77925,850.190427 458.738,853.669724 453.31125,851.109255 Z" id="Shape" fill="#2D83A6" fill-rule="nonzero"></path>
                        <path d="M518.82425,609.677891 C531.44175,627.552167 534.1,649.579548 542.09925,669.450745 C532.59325,662.516653 530.817,651.368201 526.848,641.542862 C522.76875,631.448 519.498,621.010109 515.8965,610.731481 L518.82425,609.677891 Z" id="Shape" fill="#2D83A6" fill-rule="nonzero"></path>
                        <path d="M367.73275,805.915146 C374.262,821.339213 378.378,836.064971 382.35925,851.476787 C373.31875,846.919397 364.05775,818.790996 367.73275,805.915146 Z" id="Shape" fill="#2D83A6" fill-rule="nonzero"></path>
                        <path d="M289.835,577.077858 C284.4205,576.771582 280.70875,572.753238 272.685,558.505272 C281.848,559.154577 286.5275,564.202008 289.835,577.077858 Z" id="Shape" fill="#2D83A6" fill-rule="nonzero"></path>
                        <path d="M886.05475,1003.353 C899.8115,1007.77563 912.83325,1012.32077 926.06325,1016.10634 C938.92575,1019.78166 951.93525,1023.08944 965.0305,1025.83367 C978.32175,1028.61466 991.809,1030.48907 1005.2105,1032.76777 L1005.73725,1035.34049 C1003.5445,1036.56559 1001.47425,1038.51351 999.12225,1039.0158 C995.875337,1039.55093 992.560772,1039.52607 989.32225,1038.94229 C973.61775,1036.43083 957.93775,1033.7356 942.27,1031.01587 C925.00975,1028.01436 908.71725,1021.97459 892.927,1014.59946 C888.87225,1012.61479 884.107,1010.49536 886.05475,1003.353 Z" id="Shape" fill="#2D83A6" fill-rule="nonzero"></path>
                        <path d="M937.21075,1163.97647 L927.325,1363.33774 C920.9305,1339.26444 926.1,1211.85356 934.54025,1164.07448 L937.21075,1163.97647 Z" id="Shape" fill="#2D83A6" fill-rule="nonzero"></path>
                        <path d="M899.6645,1051.65888 C917.34125,1056.98808 934.038,1062.80733 951.1145,1066.96044 C967.81125,1071.02778 984.91225,1073.40449 1002.91975,1076.76127 C997.836,1082.27424 992.85025,1080.82862 988.4035,1080.35083 C961.6495,1077.49633 935.7285,1070.86852 910.53025,1061.68023 C904.05,1059.29128 904.05,1059.34028 899.6645,1051.65888 Z" id="Shape" fill="#2D83A6" fill-rule="nonzero"></path>
                        <path d="M994.7735,1097.12251 C994.66325,1103.35829 990.682,1103.77483 987.4235,1104.64465 C973.0175,1108.46698 958.5625,1111.05195 943.5685,1107.81767 C938.6685,1106.76408 933.45,1107.47464 928.43975,1106.86209 C924.135825,1106.35437 919.973624,1105.00571 916.18975,1102.89275 C929.04,1099.21744 942.172,1100.98159 955.0835,1100.00151 C967.995,1099.02142 980.8575,1098.1271 994.7735,1097.12251 Z" id="Shape" fill="#2D83A6" fill-rule="nonzero"></path>
                        <path d="M882.9555,1053.20251 C896.4305,1068.61433 916.1775,1073.47799 934.528,1082.70303 C926.933,1085.76579 919.96275,1084.72445 908.37425,1078.46417 C897.5575,1072.62042 886.17725,1067.03394 882.9555,1053.20251 Z" id="Shape" fill="#2D83A6" fill-rule="nonzero"></path>
                        <path d="M1067.0975,498.695665 C1066.4605,506.315816 1070.3315,510.015632 1076.8975,510.848703 C1084.77425,511.841038 1092.749,512.931381 1100.62575,512.661858 C1104.54575,512.527096 1108.527,509.770611 1112.16525,507.65118 C1114.54175,506.266812 1116.35475,503.975866 1119.83375,502.750762 C1119.3805,504.502661 1119.356,506.560837 1118.36375,507.932954 C1116.31552,510.860231 1113.93544,513.540621 1111.271,515.920636 C1109.17625,517.746042 1106.4445,519.938979 1103.921,520.000234 C1094.89275,520.220753 1085.693,520.490276 1076.8485,519.020151 C1069.60875,517.795046 1063.31225,513.776703 1062.8345,504.747682 C1062.57725,499.847264 1060.78875,495.694159 1055.86425,493.415464 C1054.85975,492.949925 1054.48,491.13677 1053.0835,488.637556 C1074.815,491.565556 1095.248,497.11528 1116.57525,490.524218 L1117.80025,484.398695 C1121.89175,483.259347 1132.50025,492.19036 1136.31,500.202544 C1134.301,500.202544 1132.635,500.337305 1131.0915,500.202544 C1125.81175,499.663498 1120.3605,497.862594 1115.30125,498.63441 C1101.37744,500.963364 1087.15395,500.843132 1073.2715,498.27913 C1071.37275,497.862594 1069.16775,498.524151 1067.0975,498.695665 Z" id="Shape" fill="#2D83A6" fill-rule="nonzero"></path>
                        <path d="M1162.525,437.452686 L1154.81975,438.334762 C1149.74825,426.438996 1140.0585,420.154209 1128.65375,415.903096 C1127.343,415.413054 1125.46875,416.013356 1124.4275,415.290544 C1122.541,413.95518 1119.8215,412.093021 1119.71125,410.304368 C1119.46625,406.45754 1123.031,406.34728 1125.9955,406.249272 C1142.3615,405.734728 1158.0905,418.696335 1162.525,437.452686 Z" id="Shape" fill="#2D83A6" fill-rule="nonzero"></path>
                        <path d="M1027.24825,416.368636 C1027.579,412.497305 1027.10125,410.108351 1028.03225,408.613724 C1034.08375,398.947649 1049.15125,393.140653 1060.27425,395.137573 C1066.1175,396.203414 1068.3225,398.910895 1067.25675,405.722477 C1053.92875,406.751565 1039.81675,405.734728 1027.24825,416.368636 Z" id="Shape" fill="#2D83A6" fill-rule="nonzero"></path>
                        <path d="M1139.77675,434.80646 C1137.78,440.686962 1137.094,446.150929 1131.12825,448.025339 C1127.79625,449.066678 1124.75825,447.951833 1123.38625,443.994745 C1124.46425,439.890644 1133.8355,441.348519 1129.793,433.507849 C1128.2005,433.238326 1126.118,432.80954 1124.06,432.552268 C1122.002,432.294996 1119.944,432.233741 1117.50625,432.062226 C1121.57325,426.402243 1129.51125,424.589088 1137.731,426.965791 C1145.24025,429.146477 1149.4175,437.121908 1149.3195,449.372954 C1144.65225,449.372954 1145.31375,445.330109 1144.03975,442.806393 C1142.76575,440.282678 1141.21,437.464937 1139.77675,434.80646 Z" id="Shape" fill="#2D83A6" fill-rule="nonzero"></path>
                        <path d="M1051.9565,422.200134 L1038.86125,420.877021 C1046.101,413.942929 1052.33625,414.751498 1059.07375,416.88318 C1068.18775,419.774427 1068.87375,427.137305 1068.298,435.62728 L1060.02925,423.376234 C1053.0835,436.337841 1050.4865,437.624201 1043.14875,431.792703 L1052.67925,424.270561 L1051.9565,422.200134 Z" id="Shape" fill="#2D83A6" fill-rule="nonzero"></path>
                        <path d="M1079.4945,436.950393 C1080.9155,448.968669 1077.47325,457.581155 1068.2245,467.504502 C1070.39275,474.85513 1081.185,475.345172 1082.018,484.214929 C1073.0755,483.810644 1062.67525,474.806126 1062.55275,467.271732 C1062.63307,464.803891 1063.65943,462.461488 1065.41925,460.729674 C1072.6345,454.310126 1077.84075,446.885992 1079.4945,436.950393 Z" id="Shape" fill="#2D83A6" fill-rule="nonzero"></path>
                        <path d="M1095.52975,484.496703 C1092.4305,477.146075 1092.4305,477.146075 1100.72375,474.120067 L1095.52975,484.496703 Z" id="Shape" fill="#2D83A6" fill-rule="nonzero"></path>
                        <path d="M427.0595,460.545908 C427.80675,464.049707 428.61525,467.553506 429.2645,471.069556 C430.25675,476.484519 429.35025,481.629958 424.3645,484.472201 C415.38525,489.580887 405.622,492.962176 395.381,489.274611 C391.706,487.939247 388.36175,484.239431 385.8995,480.858142 C383.301004,476.98087 381.240544,472.76893 379.7745,468.337573 C379.133194,466.308759 379.313535,464.109283 380.27675,462.21205 C383.074496,457.155591 386.29985,452.347887 389.9175,447.841573 C391.22825,446.261188 394.499,445.391364 396.7285,445.673138 C402.1185,446.248937 406.27125,444.448033 410.80375,441.71605 C418.15375,437.244418 420.75075,438.530778 424.3645,447.033004 C426.14075,451.222862 427.476,455.608736 429.00725,459.896603 L427.0595,460.545908 Z M419.32975,457.666912 L419.32975,453.734326 C416.157,453.121774 412.727,451.406628 409.8605,452.092686 C394.548,455.706745 394.597,455.902762 390.3585,463.571916 L419.32975,457.666912 Z M422.5515,474.132318 L393.029,479.694293 L392.94325,482.536536 C398.21075,485.342025 404.38475,484.067916 410.01975,483.76164 C415.275,483.443113 420.5425,481.691213 422.5515,474.132318 Z" id="Shape" fill="#2D83A6" fill-rule="nonzero"></path>
                        <path d="M385.74025,387.933958 C384.944,391.070226 385.1155,395.68887 383.11875,396.999732 C380.22775,398.898644 375.683,399.155916 372.008,398.714879 C367.378121,398.018667 362.870234,396.669897 358.61875,394.708787 C351.56275,391.682778 346.07475,393.728703 341.04,398.788385 C339.16575,400.675046 337.00975,402.292184 333.31025,405.465205 C343.6125,386.133054 355.25,384.90795 368.6515,388.840536 C373.6985,390.29841 379.24775,394.672033 383.229,386.267816 L385.74025,387.933958 Z" id="Shape" fill="#2D83A6" fill-rule="nonzero"></path>
                        <path d="M368.0635,411.602979 C364.462,416.932184 370.636,416.503397 371.7385,418.8801 C365.33175,422.898444 365.33175,422.898444 360.13775,415.82959 C356.53625,419.027113 353.0695,422.371649 349.321,425.348653 C346.724,427.406828 344.0535,426.573757 343.833,423.290477 C343.6615,420.717757 345.1315,418.034778 345.92775,415.217038 C350.04375,415.070025 353.486,417.593741 357.0385,413.379381 C365.2215,403.664301 371.6405,403.799063 382.53075,412.521808 C377.36125,417.409975 373.2575,410.524887 368.0635,411.602979 Z" id="Shape" fill="#2D83A6" fill-rule="nonzero"></path>
                        <path d="M394.1805,390.469925 C394.48675,388.828285 394.1805,386.54959 395.2095,385.655264 C399.3745,381.845188 404.06625,378.623163 408.28025,374.874343 C414.87075,369.018343 422.44125,367.854494 430.62425,369.888167 C431.94725,370.218946 432.78025,372.460887 433.601,374.788586 C419.55025,370.684485 411.0855,377.790092 403.466,387.321406 C401.68975,389.538845 398.762,390.849707 396.37325,392.564854 L394.1805,390.469925 Z" id="Shape" fill="#2D83A6" fill-rule="nonzero"></path>
                        <path d="M438.92975,389.293824 C437.70475,403.076251 427.6475,394.329004 420.273,396.289172 L423.605,404.068586 C418.54575,407.106845 418.54575,407.106845 414.687,402.169674 L408.86825,405.844987 C412.8495,396.864971 417.3575,389.01205 429.27675,391.290745 C431.99625,391.854293 435.13225,390.163649 438.92975,389.293824 Z" id="Shape" fill="#2D83A6" fill-rule="nonzero"></path>
                        <path d="M405.9895,427.6641 C403.221,421.906109 396.93675,417.164954 399.28875,408.515715 L411.34275,426.892285 C402.08175,441.213757 402.08175,441.213757 393.58025,435.884552 C400.183,435.872301 405.34025,434.867715 405.9895,427.6641 Z" id="Shape" fill="#2D83A6" fill-rule="nonzero"></path>
                        <path d="M402.878,403.88482 L389.2315,406.494293 C393.5925,400.711799 397.74525,399.964485 402.30225,400.748552 L402.878,403.88482 Z" id="Shape" fill="#2D83A6" fill-rule="nonzero"></path>
                        <path d="M1280.38225,703.00636 C1286.50725,694.246862 1293.159,691.220854 1303.65725,691.796653 C1299.1615,698.632736 1292.1545,702.136536 1280.38225,703.00636 Z" id="Shape" fill="#2D83A6" fill-rule="nonzero"></path>
                        <path d="M289.4675,1218.38336 C289.099177,1218.31374 288.721073,1218.31374 288.35275,1218.38336 C270.81075,1223.84733 255.15525,1214.38952 238.8015,1211.47377 C205.604,1205.53202 172.54125,1198.84295 138.817,1196.31923 C114.5865,1194.48157 90.356,1192.12937 66.08875,1190.48773 C56.007,1189.78942 45.82725,1190.37747 34.888,1190.37747 C35.28,1187.92726 35.02275,1186.23662 35.7455,1185.35454 C46.55,1172.16017 56.4235,1158.12047 68.5265,1146.34721 C81.18075,1134.09617 94.668,1122.64144 107.114,1110.03511 C111.1075,1105.98002 116.60775,1103.4318 120.932,1099.59722 C123.382,1097.42879 126.92225,1094.37828 121.21375,1091.02149 C120.4665,1090.58045 121.80175,1085.14099 123.4065,1082.88679 C124.2395,1081.74745 128.3065,1081.66169 130.00925,1082.69078 C133.34125,1084.74895 135.7545,1088.265 139.062,1090.40894 C140.777,1091.54828 143.58225,1091.02149 145.88525,1091.21751 C145.88525,1088.88981 146.93875,1085.8883 145.88525,1084.33242 C142.13675,1078.86845 137.1755,1074.53158 130.22975,1073.45349 C125.32975,1072.68167 120.7115,1073.87003 117.7715,1078.2559 C115.77475,1081.22065 113.19,1084.47943 112.8715,1087.79946 C112.014,1096.3752 106.624,1100.73657 100.352,1105.53898 C73.1758923,1126.22521 49.2301553,1150.84188 29.302,1178.57972 C26.852,1182.08351 25.05125,1186.10186 22.8095,1190.15695 C17.23575,1190.56124 11.64975,1191.01453 6.0515,1191.44331 L6.0515,1201.47692 C19.75925,1201.19515 33.47925,1200.93787 47.187,1200.44783 C71.89525,1199.59026 96.2605,1202.70203 120.687,1204.96847 C139.78475,1206.72037 159.01725,1207.16141 177.98025,1209.86889 C202.7375,1213.33593 227.27425,1218.44462 251.89675,1222.855 C254.764745,1223.23862 257.562195,1224.03501 260.20225,1225.21945 C267.638,1229.01727 274.80425,1230.19337 283.073,1227.13061 C289.87175,1224.6069 291.78275,1227.21637 290.09225,1234.93453 C289.541,1237.5195 287.0665,1240.37399 291.893,1242.45667 C295.38425,1238.95287 297.05025,1234.18721 298.22625,1229.51956 C299.74525,1223.55331 295.715,1218.97141 289.4675,1218.38336 Z" id="Shape" fill="#2D83A6" fill-rule="nonzero"></path>
                        <path d="M635.432,1334.56003 C633.23925,1333.33493 630.93625,1332.23233 628.376,1330.88472 C628.376,1310.64599 628.1555,1290.35826 628.376,1270.05828 C629.51525,1176.70531 630.826,1083.31558 631.9285,989.962611 C632.1735,969.135833 631.4875,948.211046 631.3405,927.359766 C631.25475,915.500753 631.3405,903.678494 631.42625,891.831732 C631.59775,876.34641 632.01425,860.848837 632.1245,845.388017 C632.23475,827.599498 632.1245,809.859983 632.1245,792.010209 C632.377667,750.95287 632.692083,709.887364 633.06775,668.81369 C633.70475,609.212351 634.51325,549.611013 635.17475,489.948418 C635.726,439.48636 636.05675,388.987548 636.66925,338.52549 C637.485917,268.016636 638.392417,197.507782 639.38875,126.998929 C639.94,86.7542427 640.5035,46.5218075 641.2875,6.27712134 L619.017,6.27712134 C618.429,76.6226276 616.97125,146.759866 616.4445,216.909356 C615.72175,309.208736 613.921,401.508117 612.6715,493.782996 C611.4465,585.723013 610.254167,677.663029 609.0945,769.603046 C607.845,861.935096 606.530167,954.222226 605.15,1046.46444 C603.81475,1138.5678 602.32025,1230.67116 600.87475,1324.10989 L565.81525,1317.55558 C565.64375,1314.30905 565.313,1311.14828 565.37425,1307.97526 C565.96225,1269.53148 566.734,1231.1122 567.1505,1192.66842 C567.812,1134.95374 568.04475,1077.23906 568.792,1019.53664 C569.29425,980.333289 570.56825,941.129941 571.242,901.865339 C571.59725,879.73995 571.242,857.590059 571.54825,835.464669 C571.94025,807.152502 572.77325,778.864837 573.349,750.577172 C573.822667,728.067916 574.231,705.574996 574.574,683.09841 C575.153833,646.067582 575.68875,609.036753 576.17875,572.005925 C576.73,526.309523 577.03625,480.588619 577.71,434.879967 C578.06525,410.230862 579.09425,385.581757 579.572,360.932653 C580.09875,331.873172 580.27025,302.801439 580.797,273.741958 C581.466667,232.717289 582.197583,191.672201 582.98975,150.606695 C583.60225,117.626879 584.3495,84.6225607 584.7905,51.6182427 C585.011,34.6872971 584.8885,17.7073473 584.864,0.163849372 C582.169,0.163849372 579.46175,0.225104603 576.76675,0.274108787 C576.35025,16.4577406 575.88475,31.8940586 575.66425,47.3058745 C575.5785,52.3900586 573.3,54.8525188 568.6695,56.9106946 C542.1605,68.5981925 515.872,80.7879833 489.39975,92.5857406 C463.584917,104.109891 437.717,115.474778 411.796,126.680402 C384.51525,138.502661 357.0875,150.030895 329.80675,161.853155 C326.489175,163.484836 323.306419,165.377447 320.2885,167.513138 C313.93075,164.989423 308.66325,162.208435 303.05275,160.73831 C289.06325,157.062996 274.87775,154.024736 260.5575,149.638862 C312.28925,122.000502 365.05,96.67759 417.725,71.2811715 C466.4065,47.7714142 515.186,24.29841 564.48,0.555882845 C555.104667,0.817238494 545.713,1.14801674 536.305,1.54821757 C530.4495,4.45579916 524.594,7.35929707 518.7385,10.2587113 C478.044,30.3014226 437.333167,50.3114644 396.606,70.2888368 C368.29625,84.1080167 339.815,97.6821757 311.4195,111.403347 C290.186167,121.645222 268.952833,131.907515 247.7195,142.190226 C240.639,145.608268 237.0375,151.096736 236.95175,159.121172 C236.229,212.915515 235.53075,266.722109 234.563,320.516452 C233.86475,358.653958 232.652,396.74246 231.92925,434.879967 C231.73325,444.154008 232.652,453.477054 232.848,462.775598 C232.796235,464.544552 232.343883,466.278713 231.525,467.847531 C224.175,483.56154 216.825,499.271464 209.475,514.977305 L206.78,514.805791 C208.642,387.860452 210.455,260.915113 212.30475,135.023364 C247.38875,117.345105 280.721,100.487665 314.09,83.7282343 C353.62075,63.8815397 393.225,44.1941088 432.67,24.2371548 C445.736667,17.62159 458.770667,10.9856067 471.772,4.32920502 C463.785,4.62323013 455.793917,4.86008368 447.79875,5.03976569 L433.5275,12.3291381 C399.60725,29.4806025 365.60125,46.6320669 331.71775,63.7835314 C328.496,65.4251715 325.69075,67.7773724 322.6405,69.7252887 C319.284,71.8937238 316.148,74.7237155 312.48525,75.9488201 C288.54875,83.9365021 267.491,97.6209205 244.86525,108.03431 C237.31925,111.562611 229.712,115.054159 222.46,119.17051 C216.873116,122.292648 211.626348,125.987871 206.8045,130.196452 C205.02825,131.727833 204.5505,135.354142 204.477,138.049372 C203.807333,160.558628 203.28875,183.071967 202.92125,205.589389 C202.031083,262.940619 201.214417,320.291849 200.47125,377.643079 C199.80975,423.412987 198.41325,469.170644 198.80525,514.854795 C198.9155,528.759732 195.30175,539.087364 186.837,549.856033 C168.462,573.133021 151.949,597.855632 134.162,621.561406 C118.041,642.988485 101.1605,663.839766 83.8145,685.989657 C83.48375,682.963649 83.04275,680.770711 83.04275,678.639029 C83.04275,648.905741 82.84675,619.14795 83.23875,589.390159 C83.79,547.307816 84.90475,505.225473 85.6275,463.14313 C86.37475,420.75451 86.93825,378.341389 87.59975,335.95277 C88.1795833,297.53349 88.788,259.130544 89.425,220.743933 C90.062,186.992301 90.65,153.203916 91.5075,119.452285 C92.05875,97.6576736 93.2225,75.8998159 93.8105,54.105205 C94.0065,46.387046 97.3875,41.4988787 103.96575,37.5662929 C121.622083,27.0875649 139.2335,16.5598326 156.8,5.98309623 C150.266667,6.10560669 143.733333,6.20361506 137.2,6.27712134 C126.371,12.831431 115.52975,19.3612385 104.74975,25.9523013 C96.4565,31.0364854 88.3225,31.8940586 78.87775,30.5341925 C53.067,26.8588787 27.2195,23.3428285 1.372,19.8880335 C1.4945,23.1468117 1.666,26.40559 1.862,29.6888703 L14.7,31.5265272 C35.90475,34.5280335 57.085,37.4192803 78.26525,40.4452887 C80.8953321,40.9959469 83.4890614,41.7078514 86.03175,42.5769707 C85.0885,89.5474812 84.035,136.211715 83.3,183.010711 C82.74875,214.299883 82.663,245.552301 82.18525,276.841473 C81.57275,317.147414 80.4335,357.477858 80.1885,397.783799 C79.9925,422.628921 78.4,447.388285 78.4,472.233406 C78.4,497.078527 78.11825,521.678628 77.70175,546.376736 C77.11375,581.243213 76.25625,616.134192 75.59475,651.000669 C75.264,669.487498 75.17825,687.974326 74.823,706.461155 C74.823,710.075213 73.70825,713.652519 73.598,717.291079 C73.402,725.536033 72.5935,733.952502 73.843,742.025941 C74.98225,749.376569 73.843,756.371916 73.6715,763.538778 C72.814,819.109523 72.09125,874.692519 71.1235,930.238762 C70.81725,948.750092 69.8985,967.273674 69.4085,985.785004 C69.07775,1001.02531 69.188,1016.29011 68.88175,1031.53041 C68.7715,1037.30065 68.11,1043.04639 67.65675,1049.66196 C46.6235,1050.00499 25.76175,1050.201 4.98575,1050.54403 L4.98575,1062.39079 C11.662,1062.15803 18.33825,1061.94976 25.02675,1061.94976 C41.2335,1061.94976 57.477,1063.02785 73.70825,1063.17486 C89.9395,1063.32187 106.134,1062.56231 122.34075,1062.36629 C153.82325,1061.97426 185.37925,1060.36937 216.776,1061.70474 C245.30625,1062.92984 274.008,1064.48572 302.07275,1071.13804 C311.87275,1073.46574 322.028,1074.60509 331.9995,1076.41824 C333.960853,1076.99952 335.863752,1077.76238 337.6835,1078.69694 C335.013,1085.49627 336.4585,1091.04599 341.76275,1096.01992 C343.5145,1097.66156 343.84525,1101.37362 343.931,1104.17911 C344.176,1112.75485 344.01675,1121.33058 344.01675,1130.73938 C338.2715,1128.76696 331.76675,1126.77004 325.44575,1124.35659 C291.39075,1111.33372 255.62075,1104.95093 220.24275,1096.79173 C207.52725,1093.85148 194.76275,1091.02149 181.937,1088.71829 C175.55475,1087.57895 168.91525,1087.6647 162.337,1087.49319 C159.2255,1087.38293 156.4815,1088.32626 157.03275,1093.61871 C166.2815,1095.03983 175.959,1095.81165 185.2935,1098.09034 C209.8915,1104.14236 234.23225,1111.27247 258.87925,1117.18972 C310.42725,1129.60003 359.54975,1149.44673 409.84825,1165.69162 C433.19675,1173.23826 455.17325,1184.59498 476.7455,1196.39274 C482.3805,1199.48 488.71375,1201.29315 494.704,1203.74336 C498.0115,1205.04197 501.30675,1206.32833 505.729,1208.06798 C503.53625,1216.20268 501.5395,1223.63906 499.17525,1232.32505 C501.809,1231.49198 503.78125,1231.46748 504.6755,1230.4629 C510.8005,1223.46755 515.22275,1215.76164 514.0835,1205.86279 C513.60575,1201.86895 512.28275,1198.73269 508.2035,1197.6791 C473.732,1188.66233 446.05925,1164.69928 412.27375,1154.06537 C393.89875,1148.29513 375.91575,1141.5448 357.76125,1135.24777 L347.9,1131.5847 C356.11975,1117.42249 353.3635,1096.47321 342.4365,1085.03073 L347.018,1071.06454 C341.44425,1069.22688 336.51975,1066.87468 331.3625,1066.0171 C299.91675,1060.62664 268.40975,1055.66497 236.43725,1054.77064 C235.529925,1054.56743 234.646973,1054.26761 233.8035,1053.87632 C231.476,1047.8243 232.41925,1041.24549 233.8035,1035.02196 C239.79375,1008.62095 247.597,982.783498 259.41825,958.269155 C268.275,940.002845 276.96025,921.687531 289.1735,905.307883 C294.3675,898.337038 299.74525,891.513205 304.91475,884.481105 C306.098357,882.771852 306.620758,880.690776 306.38475,878.625105 C269.5,910.171548 253.44025,954.58159 233.59525,996.85995 C233.59525,979.512469 233.4605,962.164987 233.59525,944.805255 C233.9015,911.886695 234.3425,878.955883 234.82025,846.037322 C235.06525,827.15846 235.298,808.279598 235.62875,789.412987 C236.131,762.546444 237.16,735.704402 237.04975,708.825607 C237.04975,699.02477 240.9085,693.303531 249.56925,688.978912 C251.84775,694.700151 254.702,699.857841 255.81675,705.383063 C256.62525,709.3279 255.81675,713.958795 254.37125,717.87913 C252.26425,723.820887 252.8155,728.819314 255.5105,734.540552 C261.807,748.016703 267.28275,761.774628 273.11375,775.459046 C277.2175,785.125121 281.41925,794.778946 285.36375,804.494025 C291.162083,818.566393 296.87875,832.667347 302.51375,846.796887 C305.42925,854.147515 308.63875,861.204117 308.0385,869.694092 C307.56075,876.971213 313.95525,880.879297 320.117,881.712368 C345.9645,885.154912 371.861,889.712301 397.91675,883.966561 C401.3345,883.219247 403.77225,882.961975 406.994,884.77513 C416.12025,889.822561 425.614,889.675548 435.414,886.000234 C442.58025,883.366259 447.43125,879.641941 446.88,871.200971 C446.85066,868.581738 447.026784,865.964239 447.40675,863.372552 L485.296,854.686561 C490.64925,860.714075 485.57775,866.04328 485.65125,872.450577 C479.52625,873.749188 473.40125,874.533255 467.71725,876.481172 C462.30275,878.318828 455.63875,876.003381 449.34225,881.308084 C464.667,886.331013 477.015,882.226912 490.25725,876.027883 C510.188,909.865272 530.36375,942.955347 549.2655,976.768234 C556.7625,990.170879 562.03,1004.5046 561.06225,1021.12927 C559.5065,1047.92231 560.47425,1074.83786 560.05775,1101.71665 C559.42075,1142.32887 558.56325,1182.94109 557.75475,1223.5288 C557.2035,1250.61587 556.52975,1277.69068 555.89275,1304.75324 C555.807,1308.25704 555.5375,1311.74859 555.25575,1316.44074 C529.8615,1311.9201 505.81475,1307.64449 481.0085,1303.25861 C486.94975,1282.16231 497.58275,1262.83016 498.3055,1240.43525 C497.106013,1241.77743 496.046998,1243.23883 495.145,1244.79662 C484.0465,1269.64174 472.86225,1294.42561 462.07,1319.38099 C455.29575,1335.03782 449.1585,1350.97644 442.72725,1366.76803 C429.52175,1399.1843 413.08225,1429.89767 395.49125,1460.21901 L405.73225,1460.83156 C416.04675,1441.65868 426.67975,1423.42912 435.6835,1404.40325 C446.537,1381.50604 455.83475,1357.84927 465.85525,1334.57228 C469.714,1325.66577 473.683,1316.80827 477.8725,1307.36271 C486.4475,1309.46989 494.41,1311.55257 502.3725,1313.35347 C513.618,1315.90169 524.85125,1318.51116 536.207,1320.63059 C552.916,1323.74236 569.75975,1326.15582 586.432,1329.40234 C598.86575,1331.85255 611.21375,1334.68254 623.427,1338.06383 C637.35525,1341.92291 642.57375,1351.88301 640.577,1366.24124 C639.7195,1372.29326 641.47125,1378.67605 642.047,1384.92408 C642.292,1387.81533 643.125,1390.73108 642.76975,1393.49982 C640.0625,1415.31893 640.5035,1437.08904 641.54475,1458.90815 L650.24225,1458.90815 C649.92375,1453.70146 649.642,1448.50701 649.544,1443.30032 C649.299,1428.80733 650.181,1414.31434 650.51175,1399.83361 C650.710988,1396.61165 650.645435,1393.37877 650.31575,1390.16753 C649.09075,1381.5918 647.17975,1373.56736 651.0875,1364.6241 C654.64,1356.48941 644.87675,1339.9995 635.432,1334.56003 Z M566.45225,570.254025 C558.31825,568.67364 551.75225,565.561874 548.66525,556.900385 C545.8845,549.071967 539.196,545.041372 531.78475,542.713674 C518.04025,538.389054 504.83475,532.190025 490.13475,531.19769 C488.014543,530.911912 485.99613,530.112889 484.25475,528.869992 C474.06275,522.29118 463.99325,515.577607 453.495,508.631264 C456.98625,504.686427 461.29825,503.522577 466.14925,503.730845 C475.36125,504.037121 481.97625,499.957523 487.3785,490.401707 L471.02475,482.487531 C478.71775,473.740285 489.314,467.578008 488.32175,453.42805 C483.07875,455.032937 478.191,456.564318 471.00025,458.781757 C482.9685,444.619548 484.0955,430.077556 480.3225,413.759163 L489.42425,412.815833 C490.1225,414.371715 491.0045,415.36405 490.89425,416.282879 C490.5635,419.504904 489.2895,422.726929 489.47325,425.887699 C489.657,429.048469 490.33075,432.883046 492.38875,434.57369 C500.645841,441.576661 509.331618,448.057794 518.3955,453.979347 C526.1375,458.953272 532.385,456.723582 535.38625,448.172351 C537.4075,442.426611 541.156,441.348519 546.1785,441.262762 C551.5685,441.152502 557.2035,442.010075 559.09,434.402176 C559.39625,433.177071 564.66375,433.177071 567.50575,432.625774 C570.76425,443.345439 569.73525,556.104067 566.45225,570.254025 Z M430.72225,532.606561 C426.692,538.732084 422.6985,544.759598 418.57025,550.98313 C405.43825,543.791766 393.225,537.506979 381.4895,530.499381 C375.94025,527.191598 371.11375,522.585205 366.38525,518.113573 C364.7805,516.618946 364.3885,513.727699 363.5555,511.449004 C362.19575,507.834946 360.94625,504.233138 358.3125,501.035615 C357.98175,505.445992 357.0875,509.942126 357.504,514.278996 C357.7245,516.729205 359.67225,519.473439 361.55875,521.384603 C373.527,533.733657 388.0065,542.615665 402.8045,551.056636 C404.38475,551.950962 405.83025,553.053556 408.37825,554.73195 L375.30325,585.65359 C365.7605,578.572485 343.99225,551.350661 335.80925,536.551397 C337.47525,531.332452 345.2785,527.44887 339.668,520.30651 C339.2515,519.804218 339.99875,518.223833 340.43975,517.219247 C344.0535,509.194812 347.78975,501.170377 351.75875,492.325121 C357.17325,496.122946 363.58,500.129038 369.411,504.84569 C380.926,514.119732 394.8665,516.925222 408.709,519.338678 C413.6825,520.196251 419.28075,517.586778 424.536,516.373925 C426.942628,515.698222 429.306965,514.880042 431.6165,513.923715 C434.924,518.370845 428.897,524.557623 435.10775,528.000167 C440.2405,522.082912 434.581,511.093724 445.6305,507.430661 C450.10175,515.73687 455.063,523.969573 458.983,532.71682 C460.31825,535.632569 459.26475,539.846929 458.67675,543.37523 C457.2925,551.534427 455.54075,559.644619 453.65425,569.102427 C445.07925,562.278594 437.668,556.667615 430.759,550.505339 C429.39925,549.280234 429.534,545.788686 429.84025,543.448736 C430.25675,540.079699 431.4695,536.747414 430.72225,532.618812 L430.72225,532.606561 Z M322.175,508.570008 C320.2885,515.761372 312.68125,517.035481 306.348,521.531615 C316.06225,529.188519 324.44125,521.531615 335.44175,520.147247 C324.41675,526.615799 316.25825,532.839331 307.02175,536.416636 C299.89225,539.16087 291.4765,538.866845 283.59975,539.356887 C265.22475,540.581992 265.64125,536.11036 257.152,558.064234 C253.8445,566.529707 247.793,571.172854 239.806,577.555649 L239.806,544.171548 C252.82775,541.721339 260.0185,532.814828 263.8405,520.710795 C269.4755,519.706209 274.7185,518.4321 280.084,517.929808 C286.307,517.317255 289.884,514.352502 291.746,508.386243 C292.6035,505.494996 294.55125,502.922276 295.35975,501.366393 L322.175,508.570008 Z M309.30025,453.440301 C315.42525,449.225941 319.34525,450.696067 323.51025,455.829255 C329.12075,462.763347 330.75,464.821523 332.6365,473.45851 C321.52575,470.983799 314.42075,463.767933 309.2635,453.440301 L309.30025,453.440301 Z M324.184,440.870728 C330.456,432.981054 333.8125,423.523247 332.03625,412.411548 C331.0685,406.359531 330.61525,400.160502 330.12525,394.034979 C329.795703,388.212305 327.497787,382.674374 323.60825,378.329138 C319.19825,373.42872 319.578,368.222025 321.6605,362.145506 C327.62625,344.651013 342.25275,340.412151 357.1855,344.602008 C363.4575,346.37841 369.79075,348.02005 375.89125,350.261992 C386.35275,354.121071 394.156,349.869958 401.19975,342.739849 C402.20425,341.735264 402.731,340.191632 403.7845,339.272803 C406.63875,336.822594 410.38725,332.142695 412.531,332.755247 C418.08025,334.335632 424.15625,336.700084 425.6385,344.026209 C427.030472,351.223366 430.938753,357.689953 436.6635,362.268017 C439.565482,364.989998 441.681186,368.443122 442.7885,372.26487 C447.566,387.443916 451.143,402.794477 452.1965,418.904603 C453.2745,435.222996 447.89675,450.438795 446.50025,466.267146 C446.194,469.94246 444.9445,473.45851 444.80975,477.170577 C444.80975,477.170577 444.80975,477.170577 444.80975,477.170577 C444.29907,479.82621 443.573945,482.436065 442.6415,484.974494 C440.293636,489.078576 437.294075,492.773523 433.76025,495.914678 C428.341498,499.648173 422.429202,502.608697 416.19375,504.710929 C415.097229,504.695901 414.006638,504.874226 412.972,505.237724 C397.047,511.363247 382.886,505.789021 369.5335,497.997356 C360.23575,492.557891 352.0405,485.231766 343,479.31451 C339.325,476.864301 337.61,473.899548 336.17675,470.101724 C332.37925,460.717423 328.447,451.443381 324.135,440.870728 L324.184,440.870728 Z M569.968,427.884619 C562.275,423.805021 555.758,420.337975 549.2655,416.858678 C548.71425,417.495732 548.1875,418.083782 547.66075,418.769841 C549.15525,420.938276 550.62525,423.09446 552.132,425.238393 C555.37825,429.844787 554.582,432.013222 549.0205,433.507849 C538.3385,436.399096 533.72025,433.948887 530.29025,423.314979 C527.84025,415.768335 525.65975,408.09918 523.23425,400.49128 C522.719977,399.189987 521.724057,398.136943 520.4535,397.551029 C520.78425,409.900084 524.53275,421.318059 528.91825,432.527766 C521.0905,436.056067 518.89775,435.688536 515.34525,428.852452 C512.03775,422.445155 509.48975,415.609071 506.513,409.005757 C505.7045,407.204854 504.54075,405.501958 502.985,402.818979 C501.907,417.446728 512.30725,437.881473 523.72425,445.011582 C518.5915,447.290276 518.5915,447.290276 495.831,428.742192 C493.61375,420.16646 498.63625,411.480469 495.831,401.789891 C486.031,406.34728 477.78675,405.40395 469.6895,403.76231 C467.49675,403.321272 465.892,400.086996 463.33175,397.379515 C465.78175,396.15441 466.85975,395.358092 468.10925,395.076318 C488.8485,390.1759 509.66125,385.643013 530.2535,380.252552 C536.0845,378.721172 540.77625,378.782427 545.60275,382.114711 C553.651,387.688937 561.72375,393.140653 569.9435,398.776134 L569.968,427.884619 Z M320.3375,255.046862 C320.22725,241.570711 320.69275,228.180318 321.08475,214.740921 C321.47675,201.718059 322.11375,188.73195 322.6405,175.464067 C406.63875,138.514912 490.0735,101.565757 575.6765,64.5063431 C575.17425,173.736669 573.2265,280.663799 570.93575,389.159063 C563.04675,384.552669 556.52975,380.938611 550.23325,376.969272 C542.34425,372.068854 534.6635,371.08877 525.476,374.188285 C512.491,378.549657 498.9425,381.183632 486.33725,384.405657 C482.76025,378.133121 479.62425,372.669155 475.50825,365.441038 C479.03625,350.641774 492.65825,334.678661 481.8905,314.476686 L472.0905,325.919163 C469.23625,316.51036 469.8365,307.322075 463.01325,299.934695 L454.328,320.761473 C452.72325,316.093824 451.633,314.011146 451.27775,311.793707 C448.11725,292.584067 434.78925,280.78631 414.94425,279.512201 C412.527453,279.228813 410.208947,278.390223 408.17,277.061992 C404.201,274.611782 400.673,271.42651 396.56925,269.294828 C376.026,258.440402 352.34675,262.434243 335.83375,278.875146 C331.20325,283.506042 325.81325,287.340619 320.46,291.812251 C319.17375,280.480033 320.44775,267.738946 320.3375,255.046862 Z M318.95325,310.507347 C320.00675,308.118393 320.42325,305.704937 321.84425,304.381824 C323.68175,302.666678 326.34,300.70651 328.6185,300.804519 C335.36825,300.93928 342.0935,302.029623 348.831,302.69118 C352.7755,303.132218 356.7445,304.112301 360.65225,304.026544 C376.69975,303.720268 381.612,299.309891 384.1845,283.016 C393.23725,281.656134 401.506,282.121674 409.64,288.234946 C415.52,292.645322 423.409,293.980686 428.652,300.142962 C432.53525,304.724854 435.7325,309.000469 436.394,315.248502 C436.94525,320.467448 438.78275,325.551632 440.27725,331.542393 C438.19475,329.900753 425.957,315.113741 425.20975,314.464435 C422.07375,311.769205 419.08475,307.971381 415.40975,307.02805 C411.41625,305.97446 408.47625,305.055632 405.524,301.747849 C399.11725,294.531983 393.421,294.250209 385.679,300.522745 C376.43025,308.020385 367.38975,315.848803 362.11,327.364787 C352.065,323.370946 345.70725,313.312837 332.8815,312.296 C335.1845,316.265339 336.679,318.874812 338.40625,321.876318 C337.6835,322.292854 336.91175,323.101423 336.10325,323.101423 C323.0325,323.321941 314.727,330.905339 308.1855,341.171715 C304.829,346.415163 304.8535,352.197657 305.7355,357.992402 C307.75675,371.566561 303.78775,374.947849 290.4965,370.819247 C288.8322,370.157842 287.225965,369.358753 285.6945,368.430293 C284.053,362.880569 287.1645,359.303264 290.08,355.578946 C292.893804,352.290638 295.46491,348.802151 297.773,345.141054 C301.35,338.697004 300.77425,337.141121 294.686,332.595983 C288.59775,328.050845 288.169,324.020251 293.853,318.85031 C300.62543,312.584259 309.782012,309.563089 318.95325,310.568603 L318.95325,310.507347 Z M317.89975,411.639732 C311.9585,414.004184 306.1275,416.834176 299.96575,418.573824 C296.7195,419.492653 292.1625,419.798929 289.50425,418.157289 C281.95825,413.575397 274.9635,415.351799 267.7115,418.157289 C265.1635,419.161874 262.57875,420.129707 258.083,421.832603 C263.80375,412.840335 268.9365,406.763816 278.32,406.310527 C279.70425,406.22477 281.73775,405.75923 282.4605,406.482042 C289.3695,413.587649 294.7105,408.233941 300.6395,404.730142 C309.42275,399.609205 313.9185,401.3121 317.8875,411.688736 L317.89975,411.639732 Z M245.45325,156.474946 L313.71025,173.993941 C312.599583,217.493322 311.497083,260.870192 310.40275,304.124552 C293.03225,308.400167 281.81125,319.144335 272.64825,332.657238 C267.382284,340.211411 265.471608,349.605999 267.3685,358.617205 C269.451,369.226611 272.86875,379.578745 275.674,390.041138 C276.15175,391.756285 276.507,393.483682 276.899,395.345841 C271.17825,399.645958 265.4085,403.370276 260.3615,407.86641 C252.8155,414.530979 249.20175,422.910695 251.87225,433.128067 C254.065,441.48328 248.19725,445.452619 243.432,450.083515 L240.84725,449.642477 C242.39075,352.479431 243.922,255.353138 245.45325,156.474946 Z M84.5985,711.741356 C89.1555,697.444385 96.53,684.789054 105.6685,672.819782 C129.066,642.032904 151.9735,610.866243 174.8075,579.711833 C186.102,564.275515 197.372,548.76569 207.64975,532.655565 C214.0075,522.658711 218.67475,511.583766 223.77075,500.802845 C228.86675,490.021925 232.6275,478.652954 238.56875,468.435582 C244.69375,457.99769 251.55375,448.39287 265.51875,445.477121 C279.8635,442.512368 293.52225,436.227582 307.5485,431.596686 C310.596285,430.771072 313.693669,430.140904 316.82175,429.710025 C317.1035,430.543096 317.373,431.376167 317.63025,432.160234 C308.46725,437.354678 299.25525,442.53687 289.25925,448.209105 C293.00775,452.313205 296.60925,456.282544 300.13725,460.202879 C307.48725,468.202812 307.65875,472.245657 300.57825,482.634544 C297.082917,479.914812 293.5835,477.203247 290.08,474.499849 L288.61,475.577941 L296.793,488.907079 C291.02325,501.868686 285.63325,486.383364 279.18975,488.404787 C281.49275,494.236285 288.76925,499.197958 283.6365,505.642008 C281.24775,508.643515 276.556,509.807364 272.50125,512.000301 C271.27625,508.802778 270.61475,506.891615 269.892,504.980452 C269.0345,505.225473 268.177,505.200971 267.834,505.617506 C265.09,508.974293 261.807,512.110561 259.83475,515.920636 C254.22425,526.579046 246.92325,534.909757 234.99175,538.683079 C232.7745,539.405891 230.545,542.211381 229.60175,544.539079 C223.832,558.94631 218.57675,573.549556 212.86825,587.981289 C205.8,606.210845 198.45,624.354644 191.21025,642.547448 C179.8545,671.165891 171.36525,701.058444 155.68525,727.826979 C149.695,738.044351 142.11225,747.428653 134.4805,756.555682 C132.0305,759.520435 127.24075,760.659782 123.382,762.276921 C119.52325,763.894059 115.199,765.217172 111.034,766.49128 C98.57575,770.35036 89.63325,765.486695 85.162,755.171314 C78.90225,740.727331 79.93125,726.234343 84.5985,711.741356 Z M219.0545,596.066979 C222.52125,586.70718 225.5225,578.658243 228.52375,570.609305 C230.90025,580.642912 232.064,590.186477 219.0545,596.066979 Z M179.5605,693.830326 C197.9355,713.89754 199.43,723.869891 186.6165,734.05051 C183.6765,725.058243 180.369,716.752033 178.37225,708.127297 C177.41675,704.170209 178.9725,699.588318 179.54825,693.842577 L179.5605,693.830326 Z M174.93,746.179046 C174.1215,749.646092 170.9365,753.064134 167.95975,755.391833 C160.87925,760.966059 153.25975,765.829724 145.90975,771.134427 C139.65,775.716318 133.084,773.51113 126.175,772.506544 C150.12375,759.765456 160.6465,736.97851 173.166,713.162477 C175.72625,725.487029 177.3555,735.814661 174.91775,746.191297 L174.93,746.179046 Z M191.1,1052.02641 L78.596,1049.94373 C77.5425,955.426912 80.899,861.951431 82.87125,766.944569 C86.0685,768.94149 87.89375,770.619883 90.062,771.391699 C96.1135,773.584636 102.25075,775.642812 108.437,777.247699 C114.642292,779.008616 120.986186,780.238158 127.4,780.923013 C137.97175,781.731582 148.9355,784.696335 158.025,775.177272 C162.449825,770.861521 167.583917,767.339043 173.20275,764.763883 C179.32775,761.762377 182.61075,756.188151 184.69325,750.90795 C186.9105,745.223464 190.8795,742.797757 195.902,738.277121 C194.32175,843.599364 192.7415,947.145205 191.1,1052.02641 Z M222.4355,1052.27143 L200.704,1052.27143 C200.704,1042.86263 200.59375,1033.89486 200.704,1024.90259 C201.5615,954.475414 202.4435,884.072736 203.35,813.694561 C203.68075,787.207799 204.2075,760.757791 204.428,734.307782 C204.428,729.921908 205.457,727.202176 209.475,724.592703 C215.66125,720.598862 220.99,715.294159 228.487,709.046126 C226.429,824.720502 224.43225,938.128435 222.4355,1052.27143 Z M429.338,880.585272 C419.979,881.810377 415.21375,881.087565 406.798,876.909958 L406.798,866.913105 L404.7155,866.435314 L401.88575,876.591431 C358.386,880.646527 325.24975,878.257573 312.14225,869.877858 C311.92175,865.908519 311.70125,861.657406 311.444,856.744736 C313.3305,856.524218 315.05775,855.936167 316.638,856.156686 C329.77,857.994343 342.81625,861.057105 355.97275,861.657406 C369.12925,862.257707 382.3715,860.432301 395.5525,859.59923 C397.635,859.464469 400.575,858.484385 401.6775,859.488971 C409.0275,866.202544 417.44325,862.845757 425.516,862.710996 C430.906,862.625238 436.25925,862.710996 442.33525,862.710996 C443.02125,876.468921 441,879.029389 429.338,880.585272 Z M483.10325,838.368167 C482.209,840.97764 483.96075,844.49369 484.74475,849.112335 C482.310072,850.231428 479.796066,851.169142 477.22325,851.917824 C467.42325,854.196519 457.464,856.242444 447.57825,858.325121 C446.557398,858.645093 445.463102,858.645093 444.44225,858.325121 C435.05875,853.424703 425.20975,856.609975 415.5445,856.328201 C407.32475,856.107682 399.14175,854.907079 390.922,854.490544 C382.347,854.074008 373.66175,853.828987 365.0255,854.012753 C359.10875,854.147515 355.97275,851.709556 353.44925,846.380351 C345.45,829.388151 336.875,812.653222 328.41025,795.857038 C327.82225,794.71769 326.634,793.884619 324.086,791.115883 C324.086,795.085222 323.75525,796.947381 324.086,798.662527 C327.28325,812.677724 334.5475,824.843013 341.68925,837.081808 C344.35975,841.688201 346.71175,846.466109 349.5415,851.783063 C338.884,851.783063 329.58625,851.954577 320.313,851.697305 C315.119,851.562544 311.738,848.757054 309.98625,843.623866 C306.544,833.320736 303.07725,823.05436 299.194,812.922745 C297.39325,808.255096 294.196,804.150996 292.22375,799.544603 C286.78475,786.913774 281.8725,774.037925 276.29875,761.4561 C272.08475,751.937038 267.33175,742.638494 262.50525,733.388954 C260.05525,728.672301 258.671,724.592703 261.50075,719.226745 C264.63675,713.260485 264.551,707.098209 260.49625,700.739916 C257.446,696.023264 256.30675,690.081506 254.37125,684.813556 C264.061,672.464502 277.487,663.717255 283.465,648.868987 C267.67475,657.92251 255.5105,671.165891 242.21925,682.963649 C228.928,694.761406 217.07,707.80877 204.02375,720.856134 C201.05925,714.412084 198.97675,708.335565 195.5835,703.092117 C192.19025,697.848669 187.67,693.732318 183.3335,688.770644 C193.1335,662.173623 202.9335,635.331582 212.366,609.628887 C221.27175,604.850979 229.516,601.249172 236.7925,596.152736 C240.89625,593.236987 243.19925,587.797523 246.48225,583.607665 C248.479,581.059448 250.89225,578.829757 252.889,576.257038 C256.564,571.564887 261.35375,568.489874 261.35375,560.575699 C261.35375,551.473172 267.2705,548.802444 277.27875,548.802444 C288.15675,548.802444 299.15725,549.157724 309.88825,547.773356 C316.40525,546.940285 322.5425,543.105707 330.17425,540.079699 C333.788,544.526828 338.13675,549.709021 342.30175,555.038226 C350.987,566.174427 359.317,577.580151 368.284,588.459079 C375.05825,596.704033 377.9125,596.226243 385.581,588.067046 C392.931,580.214126 400.183,572.140686 408.366,565.169841 C413.1435,561.090243 419.636,558.983063 425.516,555.846795 C438.34175,559.007565 443.4745,572.998259 455.6265,578.940017 C464.87525,570.474544 461.6535,559.179079 464.89975,549.905038 C468.57475,539.222126 465.0345,529.948084 459.99975,519.840971 C466.63925,524.2881 473.634,528.257439 479.759,533.243615 C485.111336,537.818746 491.569391,540.910768 498.48925,542.211381 C511.7805,544.906611 524.55725,550.542092 537.37075,555.307749 C539.679027,556.356595 541.482793,558.27051 542.39325,560.636954 C545.92125,570.437791 552.41375,576.269289 562.7405,577.898678 C564.07575,578.119197 565.264,579.123782 566.84425,579.956854 C566.84425,596.336502 567.1995,612.654895 566.59925,628.961038 C566.4645,633.371414 563.157,637.622527 561.79725,642.094159 C557.43625,656.672904 553.44275,671.349657 549.08175,685.952904 C547.134633,692.911743 544.761829,699.744365 541.97675,706.412151 C540.75175,709.193138 537.78725,711.312569 535.31275,713.346243 C519.7675,726.307849 502.50725,736.022929 482.63775,740.849841 C480.915144,741.413905 479.249866,742.139962 477.66425,743.018276 C477.1865,748.457741 479.13425,751.26323 484.414,750.013623 C488.98965,749.001486 493.439055,747.485354 497.68075,745.492987 C508.55875,740.102527 519.21625,734.28328 531.3805,727.888234 C529.543,732.470126 528.465,735.826912 526.9705,738.914176 C517.45225,758.515849 507.3705,777.860251 498.44025,797.657941 C492.68275,810.901322 487.88075,824.720502 483.10325,838.355916 L483.10325,838.368167 Z M558.44075,975.494126 C551.25,963.451347 544.20625,951.347314 536.90525,939.402544 C528.79575,926.134661 520.6985,912.89128 512.197,899.905172 C506.84375,891.745975 500.682,884.138075 495.047,876.138142 C493.66275,874.165724 492.0825,871.556251 492.21725,869.387816 C492.82975,861.277623 492.499,853.461456 488.9955,845.988318 C488.49325,844.95923 489.10575,843.207331 489.6325,841.957724 C498.82,820.052854 508.0075,798.147983 517.32975,776.32887 C522.6095,764.077824 528.23225,751.96154 533.7325,739.771749 C534.103456,739.143494 534.329455,738.440326 534.394,737.713573 C533.47525,723.012318 545.419,714.644854 550.907,703.092117 C555.01075,694.430628 561.03775,686.38169 560.79275,675.919297 C560.707,672.697272 563.07125,669.450745 564.284,666.204218 C565.03125,666.314477 565.754,666.424736 566.47675,666.559498 L561.57675,974.48954 L558.44075,975.494126 Z" id="Shape" fill="#2D83A6" fill-rule="nonzero"></path>
                        <path d="M29.89,1457.52378 C33.99375,1457.26651 37.91375,1456.82547 40.9885,1456.75197 C49.7833817,1456.6371 58.5765618,1457.08723 67.31375,1458.09958 C68.02425,1453.77496 69.188,1449.52385 70.609,1443.11655 L78.498,1459.32469 C84.819,1460.10875 91.14,1460.91732 97.47325,1461.62788 C97.74275,1447.47792 101.14825,1434.28355 92.76925,1422.65731 C85.5785,1412.74621 76.4155,1405.00355 65.2925,1397.48141 C65.121,1404.83203 69.12675,1408.09081 72.569,1411.60686 C75.59475,1414.71863 78.841,1417.63438 81.977,1420.62363 C93.639,1431.75983 92.2425,1445.12572 86.975,1459.59421 C85.554,1457.07049 84.0105,1454.62028 82.81,1451.98631 C81.6095,1449.35233 81.585,1445.76278 79.723,1444.02313 C72.94875,1437.72609 69.5065,1429.75066 65.67225,1421.61597 C63.22225,1416.56854 57.6485,1413.04023 52.6015,1407.87029 C55.321,1402.82286 53.71625,1396.66059 50.9355,1389.99602 C47.93425,1382.78015 46.7705,1374.78022 44.443,1365.67769 C59.143,1364.6731 72.2505,1363.28874 82.92025,1374.25342 C83.1847975,1374.50908 83.4628634,1374.75036 83.75325,1374.97623 C91.385,1382.69439 101.49125,1389.18745 106.0115,1398.40023 C111.97725,1410.47977 113.64325,1424.66648 116.8405,1438.04462 C117.34275,1440.04154 116.179,1442.455 115.787,1444.70919 L113.484,1444.8807 C113.484,1433.63424 112.651,1422.5593 105.7175,1413.34651 C100.14375,1405.99588 94.36175,1398.74326 88.67775,1391.41714 C87.955,1391.69891 87.25675,1391.96844 86.57075,1392.22571 C86.7055,1394.41864 86.12975,1397.02812 87.122,1398.69426 C89.7937052,1403.00715 92.8001234,1407.10344 96.1135,1410.94531 C106.63625,1423.35562 106.90575,1438.20388 106.21975,1453.22367 C106.04825,1457.08274 103.39,1459.22668 100.09475,1461.7994 C105.16625,1462.33844 110.25,1462.72639 115.346,1462.96325 C122.8675,1455.83314 125.89325,1445.50551 123.921,1437.7996 C121.09125,1426.94517 119.5355,1415.74772 116.179,1405.07705 C114.082887,1398.55623 110.723782,1392.51182 106.29325,1387.28854 C99.9355,1379.93791 92.13225,1373.73888 85.1375,1366.85379 C77.33425,1359.16013 67.9875,1356.58741 57.29325,1357.35923 C52.969,1357.69001 48.6325,1357.91053 44.002,1358.2168 C35.70875,1337.62279 24.07125,1319.479 8.477,1304.69198 C8.42039992,1315.62015 7.62642934,1326.53204 6.1005,1337.35327 C5.23075,1343.35628 3.93225,1349.28579 2.646,1355.2153 L3.871,1354.97028 C11.30675,1369.13249 16.023,1370.34534 34.496,1362.99471 C36.3825,1370.71287 36.75,1379.2396 40.43725,1385.86741 C45.48425,1394.94544 42.71575,1402.55334 39.886,1410.71254 C39.7145,1411.21483 38.74675,1411.43535 37.436,1412.20716 C36.4581391,1410.48666 35.606564,1408.69738 34.888,1406.85346 C31.3355,1395.58249 24.206,1392.777 14.29575,1399.35582 C9.5795,1402.46758 5.4635,1406.48592 0.94325,1410.23474 C0.6125,1409.86721 0.33075,1409.49968 0.03675,1409.13215 C0.40425,1412.25617 0.7595,1415.38018 1.078,1418.4797 C1.87425,1426.44288 2.78075,1445.70152 8.61175,1452.45185 C13.034,1457.57279 21.511,1457.90356 29.43675,1457.45028 C29.43675,1457.29101 29.43675,1457.144 29.43675,1456.98474 C29.58375,1457.22976 29.7185,1457.37677 29.89,1457.52378 Z" id="Shape" fill="#2D83A6" fill-rule="nonzero"></path>
                        <path d="M740.929,1459.90049 C740.929,1433.24221 740.929,1406.41242 743.29325,1379.14159 L843.1675,1382.1431 C843.706282,1382.7887 844.061676,1383.56725 844.1965,1384.39729 C845.280673,1383.92067 846.45457,1383.68253 847.63875,1383.69898 C849.259472,1383.66066 850.852,1384.12732 852.19575,1385.03434 C852.19575,1384.31153 852.306,1383.56422 852.36725,1382.73115 L1206.7475,1393.34055 C1207.4335,1396.56258 1207.73975,1421.90999 1207.7765,1458.2711 C1210.398,1458.33235 1213.0195,1458.3691 1215.641,1458.46711 C1215.788,1442.56526 1215.95133,1426.6634 1216.131,1410.76154 C1216.25156,1406.05303 1216.87578,1401.37096 1217.993,1396.79535 C1218.32375,1395.41098 1220.737,1394.46765 1222.1825,1393.3283 C1222.88075,1393.80609 1223.6035,1394.27163 1224.314,1394.74942 L1224.314,1458.85915 C1227.31525,1458.99391 1230.3165,1459.11642 1233.3055,1459.27568 C1233.36675,1455.86989 1233.428,1452.4886 1233.5015,1449.07056 L1249.3285,1450.76121 C1249.843,1453.90972 1250.22275,1457.07049 1250.63925,1460.23126 L1256.0905,1460.52529 C1256.017,1457.40127 1256.0905,1454.1915 1256.0905,1450.30792 C1262.1175,1449.89138 1267.4095,1449.38909 1272.71375,1449.19307 C1278.2875,1448.97255 1284.03275,1448.24974 1289.484,1449.19307 C1299.4555,1450.81021 1307.859,1454.7918 1314.2045,1462.08117 C1320.85625,1461.92191 1327.508,1461.65238 1334.172,1461.11334 C1372.833,1458.02608 1411.01625,1456.48244 1449.65275,1456.12716 C1450.29788,1452.23788 1451.25651,1448.40714 1452.51925,1444.67244 C1456.035,1434.56532 1463.00525,1425.52405 1465.87175,1415.26992 C1468.95875,1404.24398 1464.49975,1395.34972 1461.43725,1384.93633 C1411.43275,1382.93941 1361.37925,1381.83682 1311.3135,1380.35444 C1290.268,1379.74189 1269.23475,1378.93332 1248.18925,1378.38203 C1245.8005,1378.38203 1241.89275,1378.55354 1241.219,1379.87665 C1237.4705,1387.48455 1229.5325,1385.73265 1224.902,1385.1201 C1188.70325,1380.42795 1152.34525,1383.56422 1116.122,1381.70206 C1088.976,1380.28094 1061.74425,1380.17068 1034.54925,1379.39886 C1028.08125,1379.20285 1021.63775,1378.67605 1015.14525,1378.28402 C1015.14525,1364.26882 1015.14525,1350.65791 1015.14525,1337.08375 C1015.14525,1321.51267 1015.28,1305.94159 1015.476,1290.37051 C1015.868,1255.52854 1016.30492,1220.68248 1016.78675,1185.83233 C1017.73408,1120.12589 1018.71408,1054.39903 1019.72675,988.651749 C1019.8615,980.651816 1019.28575,972.443615 1020.95175,964.725456 C1022.973,955.341155 1023.25475,946.875682 1017.338,938.826745 C1016.63975,937.858912 1017.1175,936.021255 1017.03175,934.195849 C1024.94525,928.450109 1034.52475,929.98149 1043.17325,929.001406 C1087.46925,923.953975 1131.86325,919.67836 1176.20825,915.120971 C1226.0045,909.987782 1275.77625,904.744335 1325.65825,899.745908 C1371.13025,895.164017 1416.65125,891.084418 1462.111,886.392268 L1462.307,886.392268 C1462.209,882.888469 1462.111,879.384669 1462.04975,875.868619 C1429.58725,880.046226 1380.97925,885.216167 1338.91275,889.050745 C1285.91925,893.951163 1233.04825,899.929674 1179.22175,905.516151 C1178.82975,901.52231 1178.5235,898.765824 1178.303,896.02159 C1177.715,887.715381 1177.4455,879.396921 1176.4655,871.151967 C1175.6325,864.021858 1177.01675,861.35113 1183.8155,861.130611 C1205.24075,860.18728 1225.89425,854.723314 1246.79275,850.557958 C1258.45475,848.254762 1270.4475,847.42169 1282.24425,845.78005 C1311.64425,841.67595 1341.04425,837.363582 1370.44425,833.394243 C1385.85475,831.311565 1401.31425,829.449406 1416.79825,828.003782 C1430.85308,826.705172 1444.92017,825.480067 1458.9995,824.328469 C1458.485,818.398962 1458.00725,812.457205 1457.61525,806.503197 C1456.39025,806.503197 1455.16525,806.576703 1453.94025,806.576703 C1452.10275,801.137238 1451.68625,796.579849 1449.33425,793.504837 C1445.34075,788.310393 1441.98425,793.504837 1438.92175,795.893791 C1426.79425,784.40231 1401.204,780.236954 1375.577,785.259883 C1370.00325,798.736033 1378.57825,803.832469 1389.3705,803.354678 C1397.43681,802.809451 1405.53923,803.482646 1413.405,805.351598 C1407.182,805.706879 1400.97125,806.098912 1394.74825,806.405188 C1367.21025,807.630293 1339.62325,807.630293 1312.1955,810.509289 C1287.41375,813.094259 1262.926,818.754243 1237.75225,823.164619 L1237.75225,844.95923 C1223.37075,848.634544 1208.4625,850.006661 1192.562,851.979079 C1201.66375,833.051213 1198.442,813.204519 1202.52125,793.872368 L1259.251,778.521808 C1254.4245,786.39923 1246.18025,790.625841 1248.3975,799.483347 C1249.95444,805.99006 1253.69971,811.764152 1259.006,815.838494 C1262.681,810.068251 1259.48375,806.674711 1257.00925,803.452686 C1253.62825,799.066812 1252.9055,795.379247 1257.5115,791.20164 C1259.98022,789.01761 1261.81291,786.206971 1262.81575,783.066946 C1265.4005,773.878661 1273.47325,772.825071 1280.52925,770.632134 C1282.6975,769.933824 1285.6865,772.016502 1287.41375,772.58005 C1301.23175,767.679632 1305.12725,755.979883 1307.957,744.047364 C1324.80075,746.240301 1319.3985,731.441038 1324.911,723.281841 L1339.40275,730.362946 C1341.3995,727.618711 1343.95975,724.55595 1345.981,721.199163 C1351.371,712.292653 1352.75525,712.035381 1360.03175,719.177741 C1360.9505,720.096569 1362.31025,720.562109 1364.66225,721.958728 C1365.189,717.217573 1365.88725,713.382996 1365.88725,709.707682 C1366.10775,701.940519 1369.795,695.802745 1374.82975,690.387782 C1375.85875,689.272937 1378.13725,688.305105 1379.35,688.697138 C1380.56275,689.089172 1381.71425,691.147347 1382.0695,692.752234 C1383.64975,699.416803 1385.1565,706.105874 1386.21,712.880703 C1386.43511,715.38164 1386.06573,717.900372 1385.132,720.231331 C1382.08175,729.174594 1378.57825,737.946343 1375.58925,746.877356 C1372.96461,754.886627 1367.40062,761.602516 1360.0195,765.67046 C1354.71525,768.757724 1349.117,772.11451 1345.3195,776.696402 C1338.98625,784.304301 1330.6195,785.137372 1322.0445,786.215464 C1311.387,787.575331 1300.999,787.440569 1291.48075,781.388552 C1287.98377,779.080073 1284.29525,777.075808 1280.45575,775.397791 C1293.78375,794.999464 1305.1885,799.997891 1336.80575,790.748351 C1336.36475,794.252151 1335.9115,797.52318 1335.36025,801.774293 C1340.75025,800.108151 1341.99975,796.224569 1343.776,792.892285 C1347.99,784.953607 1354.213,779.624402 1362.396,775.544803 C1368.48487,772.520801 1373.65038,767.917562 1377.35325,762.215665 C1381.76325,754.865038 1383.79675,746.117791 1386.73675,737.921841 C1389.67675,729.725891 1392.4575,721.603448 1394.87075,714.644854 C1409.632,703.398393 1423.5725,692.519464 1437.807,682.057071 C1449.6895,673.285322 1456.819,660.96077 1461.92725,647.913406 C1465.23475,639.496937 1462.56425,630.235146 1456.90475,622.406728 C1449.2485,611.77282 1437.6355,611.552301 1426.59825,611.380787 C1402.26111,610.849629 1377.98724,614.068515 1354.6295,620.924351 C1330.6195,627.980954 1306.1685,633.493925 1283.07725,643.490778 C1280.223,644.715883 1276.80525,644.715883 1272.44425,645.487699 C1267.88725,634.106477 1263.47725,623.141791 1259.1775,612.409874 C1261.19875,607.080669 1263.367,602.106745 1265.033,596.973556 C1267.5565,589.010377 1266.258,582.394812 1259.11625,576.734828 C1246.03806,566.320333 1231.6476,557.670492 1216.31475,551.007632 C1208.00925,547.393573 1199.16475,544.980117 1190.81025,541.709088 C1188.27004,540.581623 1185.99225,538.937801 1184.12175,536.882176 C1177.372,529.948084 1170.4875,523.062996 1164.32575,515.589858 C1161.692,512.392335 1160.65075,507.847197 1158.69075,503.338812 C1164.08075,497.985105 1166.935,489.960669 1176.67375,489.433874 C1178.92775,489.323615 1181.94125,485.40328 1182.89675,482.659046 C1186.86575,470.971548 1195.2815,462.310059 1202.852,453.256536 C1206.6495,448.699146 1207.98475,444.313272 1206.73525,439.48636 C1203.99125,428.999464 1208.7075,421.857105 1215.31025,414.665741 C1221.43525,407.976669 1228.02575,401.116084 1231.7375,393.128402 C1235.927,384.111632 1236.87025,373.636987 1239.73675,363.921908 C1243.0075,352.895967 1237.67875,343.291146 1233.33,334.519397 C1230.30425,328.393874 1222.305,324.632803 1215.592,318.948318 C1217.36825,297.214962 1209.5405,276.731213 1194.5465,259.739013 C1185.359,249.362377 1173.34175,241.362444 1162.31675,232.786711 C1158.10275,229.454427 1153.15375,227.065473 1147.88625,223.843448 C1146.94856,225.494064 1146.12981,227.209481 1145.43625,228.976636 C1144.91395,231.131457 1144.55361,233.322344 1144.35825,235.530946 C1130.88325,230.091481 1117.543,226.624435 1103.81075,228.596854 C1090.0785,230.569272 1076.86075,234.171079 1063.28775,236.486527 C1048.747,238.936736 1040.2455,250.562979 1028.98775,259.114209 L1040.01275,259.114209 C1031.07025,267.689941 1022.4095,275.714377 1014.0305,284.045088 C1010.01479,287.680038 1006.40822,291.742907 1003.275,296.161372 C998.032,304.320569 992.33575,310.862628 979.706,306.072469 C981.87425,328.197858 983.2585,348.546845 1000.9965,363.872904 C997.16225,376.332218 999.698,388.767029 1003.16475,401.018075 C1004.304,405.011916 1007.30525,408.368703 1008.91,412.289038 C1010.39513,415.397862 1011.27246,418.761912 1011.49475,422.200134 C1011.49475,444.252017 1009.77975,466.365155 1014.38575,488.049506 C1001.86625,492.0801 989.56725,495.289874 977.85625,499.933021 C958.62375,507.516418 939.88125,516.226912 920.71,524.030828 C916.465617,525.847835 911.82565,526.54389 907.235,526.052251 C896.553,524.496368 888.86,528.747481 882.86975,536.771916 C879.681858,541.199019 876.859143,545.877997 874.4295,550.762611 C859.93775,578.829757 845.0295,606.639632 831.29725,635.098812 C814.14725,670.737105 797.5485,706.657172 784.52675,744.133121 C777.258417,765.033406 769.663417,785.815264 761.74175,806.478695 C758.52,814.944167 758.43425,822.46631 763.38325,830.294728 C769.7655,840.377339 775.53525,850.864234 781.75825,861.081607 C782.81486,863.002543 784.308827,864.647725 786.11925,865.884017 C804.629,877.179481 823.06525,888.597456 841.90575,899.329372 C849.3415,903.543732 857.696,906.128703 866.08725,909.632502 C864.02925,914.790192 862.51025,918.820787 860.8075,922.790126 C858.44325,928.290845 859.0925,932.590962 864.997,935.445456 C867.229337,936.660957 869.238458,938.247677 870.93825,940.137607 C879.599,949.215632 880.15025,958.514176 871.71,967.481941 C865.37675,974.195515 864.213,982.183197 867.01825,989.71759 C871.318,1001.31933 868.77,1010.48311 861.4935,1019.61014 C855.6135,1026.96077 854.69475,1035.26698 859.411,1043.81821 C861.5425,1047.72629 861.43225,1051.29135 860.2195,1055.94674 C857.4755,1066.80117 856.11575,1078.07213 854.93975,1089.25734 C851.26475,1123.84204 847.88375,1158.4635 844.564,1193.0727 C842.7265,1212.17208 841.036,1231.32047 839.664,1250.4811 C838.439,1267.80408 836.83425,1285.15156 836.724,1302.49905 C836.61375,1320.17731 836.5035,1338.02708 843.388,1354.99478 C845.5195,1360.34849 844.91925,1366.81704 845.58075,1373.08957 C834.55575,1373.08957 824.09425,1373.42035 813.63275,1373.00382 C791.92575,1372.10949 770.21875,1370.67612 748.48725,1369.69603 C740.4145,1369.34075 734.93875,1374.71896 734.7795,1382.80465 C734.322167,1408.42567 733.877083,1434.04669 733.44425,1459.66772 C735.86975,1459.71672 738.4055,1459.79023 740.929,1459.90049 Z M1379.742,794.778946 L1379.65625,791.948954 L1385.29125,791.948954 C1385.377,792.671766 1385.46275,793.419079 1385.51175,794.141891 L1379.742,794.778946 Z M1291.15,819.562812 C1296.8095,819.281038 1301.832,819.060519 1307.92025,818.754243 C1307.026,824.034444 1306.22975,828.714343 1305.3355,834.019046 C1298.8675,834.986879 1292.571,835.905707 1286.26225,836.824536 C1285.69875,831.777105 1285.8335,831.311565 1291.15,819.562812 Z M1142.141,908.419649 C1135.5015,909.117958 1128.87425,909.914276 1122.23475,910.551331 C1092.01808,913.524251 1061.74425,916.468586 1031.41325,919.384335 C1028.88975,919.629356 1026.19475,919.715113 1023.94075,920.744201 C1016.22325,924.235749 1008.371,927.849808 1010.36775,938.618477 C993.328,941.166695 977.109,944.057941 963.291,931.402611 C963.59725,917.056636 967.81125,902.34313 975.8595,887.066075 C991.6865,882.655699 1006.83975,878.208569 1022.10325,874.214728 C1034.35325,870.992703 1046.72575,868.358728 1059.02475,865.357222 C1069.4005,862.809004 1077.069,869.461322 1085.252,873.467414 C1100.16025,880.744536 1114.652,888.98949 1129.1315,896.952669 C1133.79875,899.500887 1138.23325,902.526895 1142.76575,905.332385 C1142.582,906.373724 1142.3615,907.390561 1142.141,908.419649 Z M1299.29625,679.70487 C1308.06725,675.95605 1318.11225,674.926962 1327.69175,673.432335 C1333.192,672.574762 1339.317,671.435414 1343.8495,676.65436 C1333.437,699.135029 1269.03875,725.952569 1240.7045,718.981724 C1242.85369,712.115785 1247.61972,706.37229 1253.97125,702.994109 C1268.61924,694.369538 1283.75273,686.59762 1299.29625,679.717121 L1299.29625,679.70487 Z M1168.2825,590.10072 C1162.5985,587.013456 1157.09825,583.852686 1151.402,580.998192 C1144.4685,577.531146 1138.55175,578.97677 1132.50025,584.048703 C1122.02691,592.794824 1111.01274,600.872026 1099.52325,608.232268 C1101.471,604.373188 1103.19825,600.403849 1105.35425,596.716285 C1111.957,585.506577 1118.82925,574.456134 1125.334,563.209674 C1126.7795,560.759464 1127.196,557.635448 1128.078,554.793205 C1127.35525,554.462427 1126.608,554.156151 1125.88525,553.825372 C1120.44625,562.658377 1115.1665,571.564887 1109.59275,580.275381 C1104.15375,588.740854 1098.384,597.047063 1091.65875,607.068418 C1086.75875,594.817372 1082.27525,583.668921 1077.47325,571.613891 L1087.016,570.609305 C1106.99575,568.636887 1119.1845,555.67528 1129.597,540.263464 C1130.56475,538.793339 1131.851,536.588151 1131.4345,535.265038 C1129.1805,527.853155 1134.3255,525.182427 1139.06625,521.886895 C1141.7,520.085992 1143.67225,517.366259 1145.99975,515.112067 C1148.74375,512.392335 1151.549,509.721607 1154.57475,506.781356 C1160.65075,520.147247 1168.8705,571.234109 1168.2825,590.10072 Z M1022.81375,529.592803 C1022.483,522.095163 1025.031,517.268251 1030.99675,513.102895 C1042.622,520.955816 1048.649,534.897506 1060.9725,539.197623 C1065.63975,560.930979 1077.069,579.417808 1081.93225,601.151163 C1067.30575,597.071565 1056.64825,587.466745 1045.42725,582.076285 C1037.575,587.711766 1031.254,592.158895 1022.875,598.076151 C1022.39725,583.840435 1021.65,571.846661 1021.65,559.828385 C1021.73575,549.745774 1023.27925,539.638661 1022.81375,529.592803 Z M1119.1845,529.727565 C1099.511,544.000033 1077.8285,540.300218 1058.4245,529.641808 C1048.46525,524.177841 1041.43375,513.176402 1033.41,504.404653 C1030.2495,500.937607 1028.30175,496.40472 1025.2515,492.827414 C1021.748,488.723314 1020.6945,484.337439 1020.425,478.971481 C1019.984,470.028218 1017.42375,461.146209 1017.2645,452.239699 C1016.848,430.249071 1017.0685,408.246192 1017.5095,386.255565 C1017.61975,381.355146 1019.72675,376.626243 1021.12325,371.039766 C1043.29575,380.509824 1064.819,388.803782 1088.76775,386.868117 C1088.8535,387.590929 1088.9025,388.313741 1088.98825,388.999799 L1071.581,395.603113 C1085.68075,399.878728 1100.11125,399.131414 1124.75825,393.520435 L1115.81575,402.953741 C1136.93475,400.037992 1156.36325,399.596954 1175.08125,393.45918 C1179.29525,392.099314 1184.624,394.206494 1190.602,394.843548 C1189.68325,401.067079 1189.04625,405.979749 1188.21325,410.892418 C1186.2655,422.628921 1184.46475,434.402176 1182.08825,446.065172 C1181.1695,450.622561 1178.75625,454.861423 1177.11475,459.28405 C1165.906,489.446126 1144.444,511.412251 1119.1845,529.727565 Z M1197.07,452.668485 C1190.46725,460.251883 1183.5215,467.774025 1179.92,477.538109 C1179.17275,479.559531 1176.833,481.005155 1174.726,483.283849 C1174.83625,465.299314 1191.043,456.331548 1196.629,439.25359 C1192.2435,441.887565 1189.965,443.247431 1187.72325,444.582795 C1185.46925,440.258176 1190.66325,434.169406 1201.07575,429.514008 C1202.7295,437.954979 1203.40325,445.452619 1197.07,452.668485 Z M991.96825,314.929975 C1001.37625,308.069389 1009.11825,302.213389 1017.142,296.773925 C1019.05622,295.730912 1021.31431,295.518368 1023.3895,296.185874 C1046.06425,303.928536 1066.05625,295.181289 1085.92575,285.993004 C1094.50075,282.048167 1102.65925,277.417272 1111.7365,272.810879 C1126.00775,285.968502 1144.21125,290.354377 1162.78225,293.90718 C1170.69575,295.401808 1178.48675,296.210377 1186.35125,293.466142 C1189.965,292.241038 1193.48075,292.351297 1195.78375,296.357389 C1199.36075,302.605423 1203.13375,308.743197 1206.9925,315.236251 C1203.685,318.017238 1200.8675,320.136669 1198.28275,322.586879 C1191.5085,329.030929 1188.8135,340.326393 1192.45175,346.353908 C1196.00425,352.185406 1207.556,355.51769 1216.131,352.736703 C1219.512,351.658611 1222.51325,349.490176 1225.79625,347.995548 C1228.185,346.856201 1231.1005,345.998628 1231.713,349.66169 C1231.9335,350.886795 1229.8265,353.827046 1228.51575,354.023063 C1213.27675,356.154745 1204.8365,366.849908 1196.98425,378.390393 C1195.97975,379.836017 1194.87725,381.220385 1193.3705,383.168301 L1185.71425,379.223464 C1193.43175,369.728904 1192.84375,367.646226 1181.6105,363.456368 C1177.029,361.741222 1172.33725,360.209841 1165.59975,357.882142 C1178.92775,352.491682 1180.00575,341.784268 1181.6105,332.069188 C1183.7175,319.083079 1173.14575,307.334326 1159.35225,304.479833 C1147.66575,302.029623 1135.78325,300.400234 1123.82725,302.348151 C1120.66675,302.850444 1117.445,303.04646 1112.92475,303.573255 C1115.3135,299.603916 1117.06525,296.712669 1119.14775,293.306879 C1112.48375,289.006762 1106.43225,291.358962 1100.4665,293.588653 C1078.20825,301.919364 1058.60825,314.929975 1039.3145,328.504134 C1038.457,329.116686 1037.51375,329.643481 1037.0115,329.949757 C1021.80925,326.752234 1006.852,324.277523 991.96825,314.929975 Z M862.9635,899.978678 C838.20625,891.868485 816.781,877.387749 794.682,864.254628 C791.35,862.282209 787.88325,859.586979 785.99675,856.340452 C779.8105,845.682042 774.50625,834.545841 768.3935,823.838427 C766.683711,821.092885 766.423005,817.685114 767.69525,814.711397 C783.37525,769.162008 797.867,723.159331 817.99375,679.239331 C826.12775,661.475314 833.588,643.368268 842.19975,625.82477 C850.94625,608.036251 860.77075,590.786778 869.93375,573.145272 C872.26125,568.67364 873.70675,563.736469 875.98525,559.240335 C878.92525,553.470092 881.51,547.222059 885.6505,542.358393 C895.4505,530.805657 902.188,528.232937 919.24,535.779582 C927.374,539.39364 935.03025,544.024536 944.36475,548.961707 C943.593,535.559063 931.098,537.335464 925.659,529.752067 C957.362,518.726126 985.8065,500.018778 1019.67775,495.547146 C1022.2625,499.871766 1024.45525,503.571582 1026.9175,507.798192 C1018.08525,513.102895 1016.34575,521.041573 1016.59075,530.84241 C1017.142,554.119397 1016.59075,577.396385 1016.41925,600.599866 C1016.41925,604.50795 1016.41925,608.428285 1016.41925,613.671732 C1019.2735,612.446628 1021.7725,612.066845 1022.02975,611.123515 C1025.2515,598.872469 1037.31775,596.802042 1045.6845,590.615264 C1046.9095,589.671933 1050.5845,590.970544 1052.5935,592.195649 C1062.47925,598.18641 1071.9975,604.850979 1081.9935,610.572218 C1086.73425,613.267448 1092.34475,614.455799 1099.00875,616.869255 C1110.144,609.016335 1122.7125,600.624368 1134.75425,591.558594 C1144.35825,584.342728 1147.629,583.730176 1158.02925,589.978209 C1163.00275,592.942962 1168.04975,595.834209 1173.43975,598.994979 C1177.38425,595.417674 1175.412,590.81128 1174.93425,586.952201 C1172.913,570.376536 1170.37725,553.874377 1168.04975,537.372218 C1167.719,534.922008 1167.43725,532.373791 1166.9105,528.294192 C1180.61825,540.790259 1188.838,556.079565 1199.58125,569.151431 L1202.1905,567.399531 C1199.7405,562.094828 1197.2905,556.765623 1193.97075,549.488502 C1206.22075,554.952469 1217.14775,559.289339 1227.60925,564.667548 C1236.96825,569.408703 1245.76375,575.276954 1254.89,580.459146 C1258.6875,582.627582 1259.8635,585.592335 1258.6875,589.561674 C1257.67711,593.410606 1256.37904,597.178193 1254.80425,600.832636 C1252.2205,606.106376 1252.09054,612.250532 1254.449,617.62882 C1258.3935,627.674678 1261.799,637.89205 1265.5475,648.256435 C1249.8675,655.472301 1233.1585,663.165958 1214.91825,671.533423 C1213.9995,648.329941 1217.44175,625.530745 1212.1375,603.527866 C1211.3045,603.527866 1210.447,603.527866 1209.5895,603.527866 C1209.369,607.999498 1209.11175,612.495632 1208.89125,617.004017 L1206.3065,668.054126 C1206.00025,674.461423 1203.03575,678.210243 1196.98425,681.236251 C1171.4185,694.063096 1149.491,711.998628 1129.11925,731.808569 C1123.423,737.333791 1118.768,743.937105 1112.87575,750.956954 L1086.575,754.105473 C1091.475,716.71528 1092.8715,680.354176 1087.95925,643.846059 C1087.065,681.542527 1085.35,719.153238 1080.02125,756.384167 C1054.039,764.298343 1028.1425,769.786812 1003.16475,782.001105 C1008.4935,785.798929 1012.0215,783.385473 1015.31675,782.282879 C1029.74725,777.38246 1044.0675,772.151264 1058.53475,767.373356 C1064.8925,765.266176 1071.51975,763.90631 1079.4945,761.848134 C1077.363,779.146611 1075.43975,794.82795 1073.3695,811.34236 C1053.549,814.196854 1034.84325,812.150929 1014.3,805.094326 C1018.37925,814.895163 1024.67575,819.085021 1031.75625,820.444887 C1040.13525,822.049774 1048.90625,821.522979 1057.567,821.939515 L1071.44625,822.576569 C1069.4495,834.06805 1067.612,844.420184 1065.78675,854.747816 L1068.72675,855.409372 C1075.19475,845.608536 1075.4765,833.590259 1078.4165,821.731247 C1093.4595,818.876753 1109.61725,818.950259 1124.85625,810.705305 C1116.52625,806.184669 1109.17625,810.595046 1101.961,810.17851 C1094.74575,809.761975 1087.61625,810.068251 1080.53575,810.068251 C1082.22625,794.999464 1084.1495,780.665741 1085.2765,766.295264 C1085.6685,761.162075 1087.88575,758.944636 1092.3325,758.466845 C1098.05325,757.854293 1103.7985,757.768536 1108.9925,757.499013 C1109.4335,765.682711 1109.2375,772.874075 1110.438,779.844921 C1111.17496,783.331377 1113.26272,786.383987 1116.2445,788.334895 C1128.28625,795.330243 1141.0875,799.434343 1155.4445,797.915213 C1168.6255,796.494092 1181.9535,796.249071 1196.10225,795.465004 C1194.5465,815.066678 1192.8805,834.362075 1184.7465,853.375699 L1172.09225,854.956084 C1168.95625,871.31123 1173.80725,888.438192 1170.18125,905.834678 C1163.29675,906.385975 1156.58375,906.949523 1149.08675,907.586577 C1147.58,897.001674 1139.005,893.632636 1130.871,889.651046 C1114.71325,881.687866 1098.0655,874.802778 1083.096,864.389389 C1073.296,857.565556 1061.585,856.119933 1049.83725,859.109188 C1034.047,863.188787 1018.33025,867.684921 1002.589,872.046293 C998.73025,873.099883 994.896,874.214728 991.0985,875.427582 C981.13925,878.649607 972.3315,878.735364 965.8635,868.346477 C963.91575,865.210209 959.87325,863.213289 956.56575,860.995849 C942.025,851.525791 927.09225,842.61928 912.8455,832.683682 C898.59875,822.748084 884.97675,811.856904 870.37475,800.904469 C874.73575,793.210812 879.06,785.602912 884.19275,776.610644 C888.55375,784.941356 888.40675,792.157222 889.7665,799.066812 C890.9915,805.094326 888.762,812.922745 897.876,817.333121 C897.17775,803.14641 896.847,790.184803 892.878,777.798996 C890.550335,771.320273 891.209652,764.143422 894.67875,758.197322 C904.89525,739.012184 914.438,719.447264 924.6055,700.213121 C926.7125,696.182527 930.13025,692.739983 933.3765,689.468954 C945.83475,676.838126 958.52575,664.403314 971.04525,651.796987 C972.786868,650.05318 973.71206,647.655482 973.59325,645.193674 C962.409,654.884251 951.188,664.538075 938.28875,675.698778 C946.20225,654.210444 955.059,635.270326 960.65725,615.325623 L958.10925,614.321038 C948.8605,634.584268 940.016,655.043515 930.265,675.086226 C920.465,695.349456 909.979,715.30641 899.395,735.189858 C888.811,755.073305 877.79825,774.638226 866.3935,795.428251 C847.7735,783.851013 828.6145,778.913841 807.80175,784.29205 C805.015484,785.208435 802.304237,786.338901 799.69225,787.673339 L800.4395,790.197054 C803.04875,789.976536 805.6335,789.780519 808.206,789.498745 C825.04975,787.587582 841.624,787.22005 856.2015,798.074477 C857.140677,798.916586 857.986696,799.857144 858.725,800.879967 C863.3065,803.599699 868.3535,805.780385 872.38375,809.124921 C897.0687,829.422835 922.80919,848.401678 949.4975,865.982025 C956.8475,870.95595 963.879,876.640435 971.4005,882.275916 C962.051601,898.807212 956.541862,917.230406 955.2795,936.180519 C959.861,937.074845 963.6585,937.785406 968.8525,938.76549 C957.91325,946.789925 952.49875,948.566326 948.72575,942.710326 C941.0695,930.888067 928.354,931.15759 917.721,926.391933 C900.8405,918.808536 884.3275,910.465573 867.70425,902.490142 C866.176518,901.557388 864.593329,900.718677 862.9635,899.978678 Z M847.945,1258.05225 C850.79925,1230.65891 852.992,1203.20432 855.4665,1175.77423 C857.549,1152.37473 859.54575,1128.97523 861.5915,1105.60023 C862.8165,1091.54828 863.34325,1077.42283 865.8055,1063.5669 C867.447,1054.26835 868.7455,1045.77838 864.22525,1036.94537 C862.998571,1033.95724 863.087513,1030.59052 864.47025,1027.67133 C868.525,1020.03893 873.425,1012.88432 878.423,1004.81088 C877.06325,1000.31474 875.8995,995.010042 873.817,990.011615 C871.2935,983.959598 872.984,979.512469 877.492,975.408368 C880.8485,972.357858 886.2875,970.50795 885.93225,964.860218 C885.34425,954.973623 886.2385,944.572485 878.3005,936.682812 C874.9685,933.411782 871.4405,930.324519 867.53275,926.722711 C869.02725,922.643113 870.49725,918.722778 872.43275,913.58959 C879.6235,917.093389 885.675,920.119397 891.81225,922.998393 C899.0275,926.379682 906.04675,930.349021 913.56825,932.79923 C927.04325,937.185105 940.51825,940.982929 952.15575,949.595414 C957.2885,953.393238 962.703,952.927699 968.583,950.318226 C972.3315,948.676586 976.85175,948.37031 981.078,948.296803 C990.0205,948.100787 998.97525,948.578577 1007.94225,948.541824 C1012.57275,948.541824 1015.70875,950.563247 1015.46375,954.152803 C1014.496,967.089908 1013.4425,980.027013 1012.37675,992.964117 C1012.07198,993.992057 1011.66145,994.985621 1011.15175,995.92887 C1008.51573,996.067292 1005.87427,996.067292 1003.23825,995.92887 C990.6085,994.544502 977.97875,993.037623 965.3735,991.542996 C961.6985,991.101958 959.2485,989.48482 956.68825,986.213791 C952.52325,980.860084 946.69225,976.804987 941.5595,972.198594 L909.7095,943.69041 C905.82625,947.745506 906.6225,951.322812 909.1215,954.716351 C914.42575,961.993473 919.86475,969.123582 925.32825,976.290444 C926.7125,978.1281 928.3295,979.818745 929.00325,982.697741 C916.67975,978.177105 904.35625,973.619715 890.477,968.486527 C892.927,978.422126 899.444,983.641071 906.87975,986.275046 C932.078,995.181556 957.5335,1003.353 984.6305,1004.65162 C993.29125,1005.06815 1001.89075,1006.56278 1011.948,1007.73888 C1012.64625,1069.36164 1010.2575,1130.9354 1009.55925,1192.50915 C1008.861,1254.08291 1007.47675,1315.73018 1006.362,1378.33302 L860.0235,1374.65771 C859.215,1371.71746 859.10475,1370.98239 858.7985,1370.33309 C843.4125,1334.00874 844.025,1296.25101 847.945,1258.05225 Z" id="Shape" fill="#2D83A6" fill-rule="nonzero"></path>
                        <path d="M1460.75125,918.318494 C1460.75125,917.534427 1460.75125,916.75036 1460.75125,915.966293 C1460.67683,913.327666 1461.48756,910.740034 1463.05425,908.615665 C1463.05425,907.390561 1462.944,906.079699 1462.895,904.80559 C1452.8745,905.895933 1442.854,907.010778 1432.84575,908.064368 C1400.72625,911.445657 1368.55775,914.189891 1336.475,917.497674 C1304.39225,920.805456 1272.334,924.60328 1240.239,927.911063 C1221.09225,929.883481 1201.8475,931.071833 1182.664,932.958494 C1157.4045,935.408703 1132.1695,938.42246 1106.91,940.848167 C1097.19575,941.766996 1087.31,941.399464 1077.657,942.146778 C1065.7255,943.090109 1053.843,944.425473 1041.985,945.9201 C1039.76775,946.201874 1037.73425,947.917021 1034.929,949.338142 C1036.31325,951.200301 1036.95025,953.013456 1037.95475,953.221724 C1046.13775,955.022628 1053.4755,959.555515 1062.7365,957.607598 C1076.138,954.802109 1089.8825,953.503498 1103.54125,951.947615 C1124.36625,949.558661 1145.31375,947.500485 1166.21225,945.283046 C1171.5655,944.731749 1176.9555,943.592402 1182.30875,943.482142 C1210.153,942.894092 1237.87475,941.791498 1265.131,935.457707 C1267.2135,934.955414 1269.492,935.347448 1271.648,935.175933 L1381.15075,926.514444 C1397.00225,925.289339 1412.87825,924.321506 1428.693,922.83913 C1435.85925,922.14082 1442.854,919.702862 1450.008,919.163816 L1460.75125,918.318494 Z" id="Shape" fill="#2D83A6" fill-rule="nonzero"></path>
                    </g>
                </g>
            </g>
        </g>
    </g>
</svg>